0
SECTION
2
HEADER
9
$INSUNITS
70
4
0
ENDSEC
0
SECTION
2
TABLES
0
TABLE
2
LTYPE
0
LTYPE
72
65
70
64
2
CONTINUOUS
3
______
73
0
40
0
0
ENDTAB
0
TABLE
2
LAYER
0
ENDTAB
0
ENDSEC
0
SECTION
2
ENTITIES
0
LINE
8
0
10
52.5
20
-38.5
11
57.5
21
-38.5
0
LINE
8
0
10
57.5
20
-38.5
11
57.5
21
-33.5
0
LINE
8
0
10
57.5
20
-33.5
11
52.5
21
-33.5
0
LINE
8
0
10
52.5
20
-33.5
11
52.5
21
-38.5
0
LINE
8
0
10
52.5
20
-157.5
11
57.5
21
-157.5
0
LINE
8
0
10
57.5
20
-157.5
11
57.5
21
-152.5
0
LINE
8
0
10
57.5
20
-152.5
11
52.5
21
-152.5
0
LINE
8
0
10
52.5
20
-152.5
11
52.5
21
-157.5
0
LINE
8
0
10
91.5
20
-108.5
11
176.5
21
-108.5
0
LINE
8
0
10
108.5
20
-108.5
11
108.5
21
-57.5
0
LINE
8
0
10
91.5
20
-91.5
11
176.5
21
-91.5
0
LINE
8
0
10
91.5
20
-108.5
11
91.5
21
-57.5
0
LINE
8
0
10
91.5
20
-74.5
11
176.5
21
-74.5
0
LINE
8
0
10
91.5
20
-57.5
11
176.5
21
-57.5
0
LINE
8
0
10
125.5
20
-108.5
11
125.5
21
-57.5
0
LINE
8
0
10
142.5
20
-108.5
11
142.5
21
-57.5
0
LINE
8
0
10
159.5
20
-108.5
11
159.5
21
-57.5
0
LINE
8
0
10
176.5
20
-108.5
11
176.5
21
-57.5
0
LINE
8
0
10
176.5
20
-102.125
11
193.5
21
-102.125
0
LINE
8
0
10
193.5
20
-102.125
11
193.5
21
-59.625
0
LINE
8
0
10
176.5
20
-80.875
11
193.5
21
-80.875
0
LINE
8
0
10
193.5
20
-59.625
11
176.5
21
-59.625
0
LINE
8
0
10
71.7948071
20
-142.7600676
11
88.4233163
21
-139.2255689
0
LINE
8
0
10
88.4233163
20
-139.2255689
11
84.0051929
21
-118.4399324
0
LINE
8
0
10
84.0051929
20
-118.4399324
11
67.3766837
21
-121.9744311
0
LINE
8
0
10
67.3766837
20
-121.9744311
11
71.7948071
21
-142.7600676
0
LINE
8
0
10
87.6901921
20
-136.3114002
11
104.4808939
21
-133.6520143
0
LINE
8
0
10
104.4808939
20
-133.6520143
11
101.1566615
21
-112.663637
0
LINE
8
0
10
101.1566615
20
-112.663637
11
84.3659597
21
-115.3230229
0
LINE
8
0
10
84.3659597
20
-115.3230229
11
87.6901921
21
-136.3114002
0
LINE
8
0
10
103.4932928
20
-129.7725612
11
120.4699949
21
-130.6622724
0
LINE
8
0
10
120.4699949
20
-130.6622724
11
121.582134
21
-109.4413948
0
LINE
8
0
10
121.582134
20
-109.4413948
11
104.6054319
21
-108.5516836
0
LINE
8
0
10
104.6054319
20
-108.5516836
11
103.4932928
21
-129.7725612
0
LINE
8
0
10
98.9428754
20
-101.0641957
11
100.8707149
21
-99.1363561
0
LINE
8
0
10
100.8636439
20
-99.1292851
11
98.9358043
21
-101.0571246
0
LINE
8
0
10
98.9358043
20
-101.0571246
11
98.9428754
21
-101.0641957
0
LINE
8
0
10
98.9428754
20
-84.0641957
11
100.8707149
21
-82.1363561
0
LINE
8
0
10
100.8636439
20
-82.1292851
11
98.9358043
21
-84.0571246
0
LINE
8
0
10
98.9358043
20
-84.0571246
11
98.9428754
21
-84.0641957
0
LINE
8
0
10
98.9428754
20
-67.0641957
11
100.8707149
21
-65.1363561
0
LINE
8
0
10
100.8636439
20
-65.1292851
11
98.9358043
21
-67.0571246
0
LINE
8
0
10
98.9358043
20
-67.0571246
11
98.9428754
21
-67.0641957
0
LINE
8
0
10
115.9428754
20
-101.0641957
11
117.8707149
21
-99.1363561
0
LINE
8
0
10
117.8636439
20
-99.1292851
11
115.9358043
21
-101.0571246
0
LINE
8
0
10
115.9358043
20
-101.0571246
11
115.9428754
21
-101.0641957
0
LINE
8
0
10
115.9428754
20
-84.0641957
11
117.8707149
21
-82.1363561
0
LINE
8
0
10
117.8636439
20
-82.1292851
11
115.9358043
21
-84.0571246
0
LINE
8
0
10
115.9358043
20
-84.0571246
11
115.9428754
21
-84.0641957
0
LINE
8
0
10
115.9428754
20
-67.0641957
11
117.8707149
21
-65.1363561
0
LINE
8
0
10
117.8636439
20
-65.1292851
11
115.9358043
21
-67.0571246
0
LINE
8
0
10
115.9358043
20
-67.0571246
11
115.9428754
21
-67.0641957
0
LINE
8
0
10
132.9428754
20
-101.0641957
11
134.8707149
21
-99.1363561
0
LINE
8
0
10
134.8636439
20
-99.1292851
11
132.9358043
21
-101.0571246
0
LINE
8
0
10
132.9358043
20
-101.0571246
11
132.9428754
21
-101.0641957
0
LINE
8
0
10
132.9428754
20
-84.0641957
11
134.8707149
21
-82.1363561
0
LINE
8
0
10
134.8636439
20
-82.1292851
11
132.9358043
21
-84.0571246
0
LINE
8
0
10
132.9358043
20
-84.0571246
11
132.9428754
21
-84.0641957
0
LINE
8
0
10
132.9428754
20
-67.0641957
11
134.8707149
21
-65.1363561
0
LINE
8
0
10
134.8636439
20
-65.1292851
11
132.9358043
21
-67.0571246
0
LINE
8
0
10
132.9358043
20
-67.0571246
11
132.9428754
21
-67.0641957
0
LINE
8
0
10
149.9428754
20
-101.0641957
11
151.8707149
21
-99.1363561
0
LINE
8
0
10
151.8636439
20
-99.1292851
11
149.9358043
21
-101.0571246
0
LINE
8
0
10
149.9358043
20
-101.0571246
11
149.9428754
21
-101.0641957
0
LINE
8
0
10
149.9428754
20
-84.0641957
11
151.8707149
21
-82.1363561
0
LINE
8
0
10
151.8636439
20
-82.1292851
11
149.9358043
21
-84.0571246
0
LINE
8
0
10
149.9358043
20
-84.0571246
11
149.9428754
21
-84.0641957
0
LINE
8
0
10
149.9428754
20
-67.0641957
11
151.8707149
21
-65.1363561
0
LINE
8
0
10
151.8636439
20
-65.1292851
11
149.9358043
21
-67.0571246
0
LINE
8
0
10
149.9358043
20
-67.0571246
11
149.9428754
21
-67.0641957
0
LINE
8
0
10
166.9428754
20
-101.0641957
11
168.8707149
21
-99.1363561
0
LINE
8
0
10
168.8636439
20
-99.1292851
11
166.9358043
21
-101.0571246
0
LINE
8
0
10
166.9358043
20
-101.0571246
11
166.9428754
21
-101.0641957
0
LINE
8
0
10
166.9428754
20
-84.0641957
11
168.8707149
21
-82.1363561
0
LINE
8
0
10
168.8636439
20
-82.1292851
11
166.9358043
21
-84.0571246
0
LINE
8
0
10
166.9358043
20
-84.0571246
11
166.9428754
21
-84.0641957
0
LINE
8
0
10
166.9428754
20
-67.0641957
11
168.8707149
21
-65.1363561
0
LINE
8
0
10
168.8636439
20
-65.1292851
11
166.9358043
21
-67.0571246
0
LINE
8
0
10
166.9358043
20
-67.0571246
11
166.9428754
21
-67.0641957
0
LINE
8
0
10
183.9428754
20
-92.5641957
11
185.8707149
21
-90.6363561
0
LINE
8
0
10
185.8636439
20
-90.6292851
11
183.9358043
21
-92.5571246
0
LINE
8
0
10
183.9358043
20
-92.5571246
11
183.9428754
21
-92.5641957
0
LINE
8
0
10
183.9428754
20
-71.3141957
11
185.8707149
21
-69.3863561
0
LINE
8
0
10
185.8636439
20
-69.3792851
11
183.9358043
21
-71.3071246
0
LINE
8
0
10
183.9358043
20
-71.3071246
11
183.9428754
21
-71.3141957
0
LINE
8
0
10
77.0872348
20
-131.860729
11
78.5721261
21
-129.574197
0
LINE
8
0
10
78.5637394
20
-129.5687506
11
77.0788481
21
-131.8552827
0
LINE
8
0
10
77.0788481
20
-131.8552827
11
77.0872348
21
-131.860729
0
LINE
8
0
10
93.545794
20
-125.703983
11
95.1483182
21
-123.4982978
0
LINE
8
0
10
95.140228
20
-123.49242
11
93.5377038
21
-125.6981052
0
LINE
8
0
10
93.5377038
20
-125.6981052
11
93.545794
21
-125.703983
0
LINE
8
0
10
111.4263418
20
-120.6143896
11
113.4524346
21
-118.7900875
0
LINE
8
0
10
113.4457433
20
-118.782656
11
111.4196505
21
-120.6069582
0
LINE
8
0
10
111.4196505
20
-120.6069582
11
111.4263418
21
-120.6143896
0
LINE
8
0
10
53.9428754
20
-37.0641957
11
55.8707149
21
-35.1363561
0
LINE
8
0
10
55.8636439
20
-35.1292851
11
53.9358043
21
-37.0571246
0
LINE
8
0
10
53.9358043
20
-37.0571246
11
53.9428754
21
-37.0641957
0
LINE
8
0
10
53.9428754
20
-156.0641957
11
55.8707149
21
-154.1363561
0
LINE
8
0
10
55.8636439
20
-154.1292851
11
53.9358043
21
-156.0571246
0
LINE
8
0
10
53.9358043
20
-156.0571246
11
53.9428754
21
-156.0641957
0
LINE
8
0
10
89.9428754
20
-67.9141957
11
91.8707149
21
-65.9863561
0
LINE
8
0
10
91.8636439
20
-65.9792851
11
89.9358043
21
-67.9071246
0
LINE
8
0
10
89.9358043
20
-67.9071246
11
89.9428754
21
-67.9141957
0
LINE
8
0
10
71.9428754
20
-67.9141957
11
73.8707149
21
-65.9863561
0
LINE
8
0
10
73.8636439
20
-65.9792851
11
71.9358043
21
-67.9071246
0
LINE
8
0
10
71.9358043
20
-67.9071246
11
71.9428754
21
-67.9141957
0
LINE
8
0
10
89.9428754
20
-101.3141957
11
91.8707149
21
-99.3863561
0
LINE
8
0
10
91.8636439
20
-99.3792851
11
89.9358043
21
-101.3071246
0
LINE
8
0
10
89.9358043
20
-101.3071246
11
89.9428754
21
-101.3141957
0
LINE
8
0
10
71.9428754
20
-101.3141957
11
73.8707149
21
-99.3863561
0
LINE
8
0
10
73.8636439
20
-99.3792851
11
71.9358043
21
-101.3071246
0
LINE
8
0
10
71.9358043
20
-101.3071246
11
71.9428754
21
-101.3141957
0
LINE
8
0
10
80.9428754
20
-84.6141957
11
82.8707149
21
-82.6863561
0
LINE
8
0
10
82.8636439
20
-82.6792851
11
80.9358043
21
-84.6071246
0
LINE
8
0
10
80.9358043
20
-84.6071246
11
80.9428754
21
-84.6141957
0
LINE
8
0
10
175.4428754
20
-68.1266957
11
177.3707149
21
-66.1988561
0
LINE
8
0
10
177.3636439
20
-66.1917851
11
175.4358043
21
-68.1196246
0
LINE
8
0
10
175.4358043
20
-68.1196246
11
175.4428754
21
-68.1266957
0
LINE
8
0
10
175.4428754
20
-87.2516957
11
177.3707149
21
-85.3238561
0
LINE
8
0
10
177.3636439
20
-85.3167851
11
175.4358043
21
-87.2446246
0
LINE
8
0
10
175.4358043
20
-87.2446246
11
175.4428754
21
-87.2516957
0
LINE
8
0
10
87.9428754
20
-65.5141957
11
89.8707149
21
-63.5863561
0
LINE
8
0
10
89.8636439
20
-63.5792851
11
87.9358043
21
-65.5071246
0
LINE
8
0
10
87.9358043
20
-65.5071246
11
87.9428754
21
-65.5141957
0
LINE
8
0
10
74.1570097
20
-65.3000614
11
75.8707149
21
-63.5863561
0
LINE
8
0
10
75.8636439
20
-63.5792851
11
74.1428653
21
-65.3000636
0
LINE
8
0
10
141.4428754
20
-75.5641957
11
143.3707149
21
-73.6363561
0
LINE
8
0
10
143.3636439
20
-73.6292851
11
141.4358043
21
-75.5571246
0
LINE
8
0
10
141.4358043
20
-75.5571246
11
141.4428754
21
-75.5641957
0
LINE
8
0
10
141.4428754
20
-56.5141957
11
143.3707149
21
-54.5863561
0
LINE
8
0
10
143.3636439
20
-54.5792851
11
141.4358043
21
-56.5071246
0
LINE
8
0
10
141.4358043
20
-56.5071246
11
141.4428754
21
-56.5141957
0
LINE
8
0
10
141.4428754
20
-94.6141957
11
143.3707149
21
-92.6863561
0
LINE
8
0
10
143.3636439
20
-92.6792851
11
141.4358043
21
-94.6071246
0
LINE
8
0
10
141.4358043
20
-94.6071246
11
141.4428754
21
-94.6141957
0
LINE
8
0
10
122.3928754
20
-75.5641957
11
124.3207149
21
-73.6363561
0
LINE
8
0
10
124.3136439
20
-73.6292851
11
122.3858043
21
-75.5571246
0
LINE
8
0
10
122.3858043
20
-75.5571246
11
122.3928754
21
-75.5641957
0
LINE
8
0
10
160.4928754
20
-75.5641957
11
162.4207149
21
-73.6363561
0
LINE
8
0
10
162.4136439
20
-73.6292851
11
160.4858043
21
-75.5571246
0
LINE
8
0
10
160.4858043
20
-75.5571246
11
160.4928754
21
-75.5641957
0
LINE
8
0
10
101.0571246
20
-101.0641957
11
101.0641957
21
-101.0571246
0
LINE
8
0
10
101.0641957
20
-101.0571246
11
98.9428754
21
-98.9358043
0
LINE
8
0
10
98.9428754
20
-98.9358043
11
98.9358043
21
-98.9428754
0
LINE
8
0
10
98.9358043
20
-98.9428754
11
101.0571246
21
-101.0641957
0
LINE
8
0
10
101.0571246
20
-84.0641957
11
101.0641957
21
-84.0571246
0
LINE
8
0
10
101.0641957
20
-84.0571246
11
98.9428754
21
-81.9358043
0
LINE
8
0
10
98.9428754
20
-81.9358043
11
98.9358043
21
-81.9428754
0
LINE
8
0
10
98.9358043
20
-81.9428754
11
101.0571246
21
-84.0641957
0
LINE
8
0
10
101.0571246
20
-67.0641957
11
101.0641957
21
-67.0571246
0
LINE
8
0
10
101.0641957
20
-67.0571246
11
98.9428754
21
-64.9358043
0
LINE
8
0
10
98.9428754
20
-64.9358043
11
98.9358043
21
-64.9428754
0
LINE
8
0
10
98.9358043
20
-64.9428754
11
101.0571246
21
-67.0641957
0
LINE
8
0
10
118.0571246
20
-101.0641957
11
118.0641957
21
-101.0571246
0
LINE
8
0
10
118.0641957
20
-101.0571246
11
115.9428754
21
-98.9358043
0
LINE
8
0
10
115.9428754
20
-98.9358043
11
115.9358043
21
-98.9428754
0
LINE
8
0
10
115.9358043
20
-98.9428754
11
118.0571246
21
-101.0641957
0
LINE
8
0
10
118.0571246
20
-84.0641957
11
118.0641957
21
-84.0571246
0
LINE
8
0
10
118.0641957
20
-84.0571246
11
115.9428754
21
-81.9358043
0
LINE
8
0
10
115.9428754
20
-81.9358043
11
115.9358043
21
-81.9428754
0
LINE
8
0
10
115.9358043
20
-81.9428754
11
118.0571246
21
-84.0641957
0
LINE
8
0
10
118.0571246
20
-67.0641957
11
118.0641957
21
-67.0571246
0
LINE
8
0
10
118.0641957
20
-67.0571246
11
115.9428754
21
-64.9358043
0
LINE
8
0
10
115.9428754
20
-64.9358043
11
115.9358043
21
-64.9428754
0
LINE
8
0
10
115.9358043
20
-64.9428754
11
118.0571246
21
-67.0641957
0
LINE
8
0
10
135.0571246
20
-101.0641957
11
135.0641957
21
-101.0571246
0
LINE
8
0
10
135.0641957
20
-101.0571246
11
132.9428754
21
-98.9358043
0
LINE
8
0
10
132.9428754
20
-98.9358043
11
132.9358043
21
-98.9428754
0
LINE
8
0
10
132.9358043
20
-98.9428754
11
135.0571246
21
-101.0641957
0
LINE
8
0
10
135.0571246
20
-84.0641957
11
135.0641957
21
-84.0571246
0
LINE
8
0
10
135.0641957
20
-84.0571246
11
132.9428754
21
-81.9358043
0
LINE
8
0
10
132.9428754
20
-81.9358043
11
132.9358043
21
-81.9428754
0
LINE
8
0
10
132.9358043
20
-81.9428754
11
135.0571246
21
-84.0641957
0
LINE
8
0
10
135.0571246
20
-67.0641957
11
135.0641957
21
-67.0571246
0
LINE
8
0
10
135.0641957
20
-67.0571246
11
132.9428754
21
-64.9358043
0
LINE
8
0
10
132.9428754
20
-64.9358043
11
132.9358043
21
-64.9428754
0
LINE
8
0
10
132.9358043
20
-64.9428754
11
135.0571246
21
-67.0641957
0
LINE
8
0
10
152.0571246
20
-101.0641957
11
152.0641957
21
-101.0571246
0
LINE
8
0
10
152.0641957
20
-101.0571246
11
149.9428754
21
-98.9358043
0
LINE
8
0
10
149.9428754
20
-98.9358043
11
149.9358043
21
-98.9428754
0
LINE
8
0
10
149.9358043
20
-98.9428754
11
152.0571246
21
-101.0641957
0
LINE
8
0
10
152.0571246
20
-84.0641957
11
152.0641957
21
-84.0571246
0
LINE
8
0
10
152.0641957
20
-84.0571246
11
149.9428754
21
-81.9358043
0
LINE
8
0
10
149.9428754
20
-81.9358043
11
149.9358043
21
-81.9428754
0
LINE
8
0
10
149.9358043
20
-81.9428754
11
152.0571246
21
-84.0641957
0
LINE
8
0
10
152.0571246
20
-67.0641957
11
152.0641957
21
-67.0571246
0
LINE
8
0
10
152.0641957
20
-67.0571246
11
149.9428754
21
-64.9358043
0
LINE
8
0
10
149.9428754
20
-64.9358043
11
149.9358043
21
-64.9428754
0
LINE
8
0
10
149.9358043
20
-64.9428754
11
152.0571246
21
-67.0641957
0
LINE
8
0
10
169.0571246
20
-101.0641957
11
169.0641957
21
-101.0571246
0
LINE
8
0
10
169.0641957
20
-101.0571246
11
166.9428754
21
-98.9358043
0
LINE
8
0
10
166.9428754
20
-98.9358043
11
166.9358043
21
-98.9428754
0
LINE
8
0
10
166.9358043
20
-98.9428754
11
169.0571246
21
-101.0641957
0
LINE
8
0
10
169.0571246
20
-84.0641957
11
169.0641957
21
-84.0571246
0
LINE
8
0
10
169.0641957
20
-84.0571246
11
166.9428754
21
-81.9358043
0
LINE
8
0
10
166.9428754
20
-81.9358043
11
166.9358043
21
-81.9428754
0
LINE
8
0
10
166.9358043
20
-81.9428754
11
169.0571246
21
-84.0641957
0
LINE
8
0
10
169.0571246
20
-67.0641957
11
169.0641957
21
-67.0571246
0
LINE
8
0
10
169.0641957
20
-67.0571246
11
166.9428754
21
-64.9358043
0
LINE
8
0
10
166.9428754
20
-64.9358043
11
166.9358043
21
-64.9428754
0
LINE
8
0
10
166.9358043
20
-64.9428754
11
169.0571246
21
-67.0641957
0
LINE
8
0
10
186.0571246
20
-92.5641957
11
186.0641957
21
-92.5571246
0
LINE
8
0
10
186.0641957
20
-92.5571246
11
183.9428754
21
-90.4358043
0
LINE
8
0
10
183.9428754
20
-90.4358043
11
183.9358043
21
-90.4428754
0
LINE
8
0
10
183.9358043
20
-90.4428754
11
186.0571246
21
-92.5641957
0
LINE
8
0
10
186.0571246
20
-71.3141957
11
186.0641957
21
-71.3071246
0
LINE
8
0
10
186.0641957
20
-71.3071246
11
183.9428754
21
-69.1858043
0
LINE
8
0
10
183.9428754
20
-69.1858043
11
183.9358043
21
-69.1928754
0
LINE
8
0
10
183.9358043
20
-69.1928754
11
186.0571246
21
-71.3141957
0
LINE
8
0
10
79.1552827
20
-131.4211519
11
79.160729
21
-131.4127652
0
LINE
8
0
10
79.160729
20
-131.4127652
11
76.6447173
21
-129.7788481
0
LINE
8
0
10
76.6447173
20
-129.7788481
11
76.639271
21
-129.7872348
0
LINE
8
0
10
76.639271
20
-129.7872348
11
79.1552827
21
-131.4211519
0
LINE
8
0
10
95.6340134
20
-125.3732416
11
95.6398912
21
-125.3651514
0
LINE
8
0
10
95.6398912
20
-125.3651514
11
93.2128402
21
-123.6017956
0
LINE
8
0
10
93.2128402
20
-123.6017956
11
93.2069624
21
-123.6098858
0
LINE
8
0
10
93.2069624
20
-123.6098858
11
95.6340134
21
-125.3732416
0
LINE
8
0
10
113.5376936
20
-120.7250409
11
113.545125
21
-120.7183496
0
LINE
8
0
10
113.545125
20
-120.7183496
11
111.5377332
21
-118.4889151
0
LINE
8
0
10
111.5377332
20
-118.4889151
11
111.5303018
21
-118.4956064
0
LINE
8
0
10
111.5303018
20
-118.4956064
11
113.5376936
21
-120.7250409
0
LINE
8
0
10
56.0571246
20
-37.0641957
11
56.0641957
21
-37.0571246
0
LINE
8
0
10
56.0641957
20
-37.0571246
11
53.9428754
21
-34.9358043
0
LINE
8
0
10
53.9428754
20
-34.9358043
11
53.9358043
21
-34.9428754
0
LINE
8
0
10
53.9358043
20
-34.9428754
11
56.0571246
21
-37.0641957
0
LINE
8
0
10
56.0571246
20
-156.0641957
11
56.0641957
21
-156.0571246
0
LINE
8
0
10
56.0641957
20
-156.0571246
11
53.9428754
21
-153.9358043
0
LINE
8
0
10
53.9428754
20
-153.9358043
11
53.9358043
21
-153.9428754
0
LINE
8
0
10
53.9358043
20
-153.9428754
11
56.0571246
21
-156.0641957
0
LINE
8
0
10
92.0571246
20
-67.9141957
11
92.0641957
21
-67.9071246
0
LINE
8
0
10
92.0641957
20
-67.9071246
11
89.9428754
21
-65.7858043
0
LINE
8
0
10
89.9428754
20
-65.7858043
11
89.9358043
21
-65.7928754
0
LINE
8
0
10
89.9358043
20
-65.7928754
11
92.0571246
21
-67.9141957
0
LINE
8
0
10
74.0571246
20
-67.9141957
11
74.0641957
21
-67.9071246
0
LINE
8
0
10
74.0641957
20
-67.9071246
11
71.9428754
21
-65.7858043
0
LINE
8
0
10
71.9428754
20
-65.7858043
11
71.9358043
21
-65.7928754
0
LINE
8
0
10
71.9358043
20
-65.7928754
11
74.0571246
21
-67.9141957
0
LINE
8
0
10
92.0571246
20
-101.3141957
11
92.0641957
21
-101.3071246
0
LINE
8
0
10
92.0641957
20
-101.3071246
11
89.9428754
21
-99.1858043
0
LINE
8
0
10
89.9428754
20
-99.1858043
11
89.9358043
21
-99.1928754
0
LINE
8
0
10
89.9358043
20
-99.1928754
11
92.0571246
21
-101.3141957
0
LINE
8
0
10
74.0571246
20
-101.3141957
11
74.0641957
21
-101.3071246
0
LINE
8
0
10
74.0641957
20
-101.3071246
11
71.9428754
21
-99.1858043
0
LINE
8
0
10
71.9428754
20
-99.1858043
11
71.9358043
21
-99.1928754
0
LINE
8
0
10
71.9358043
20
-99.1928754
11
74.0571246
21
-101.3141957
0
LINE
8
0
10
83.0571246
20
-84.6141957
11
83.0641957
21
-84.6071246
0
LINE
8
0
10
83.0641957
20
-84.6071246
11
80.9428754
21
-82.4858043
0
LINE
8
0
10
80.9428754
20
-82.4858043
11
80.9358043
21
-82.4928754
0
LINE
8
0
10
80.9358043
20
-82.4928754
11
83.0571246
21
-84.6141957
0
LINE
8
0
10
177.5571246
20
-68.1266957
11
177.5641957
21
-68.1196246
0
LINE
8
0
10
177.5641957
20
-68.1196246
11
175.4428754
21
-65.9983043
0
LINE
8
0
10
175.4428754
20
-65.9983043
11
175.4358043
21
-66.0053754
0
LINE
8
0
10
175.4358043
20
-66.0053754
11
177.5571246
21
-68.1266957
0
LINE
8
0
10
177.5571246
20
-87.2516957
11
177.5641957
21
-87.2446246
0
LINE
8
0
10
177.5641957
20
-87.2446246
11
175.4428754
21
-85.1233043
0
LINE
8
0
10
175.4428754
20
-85.1233043
11
175.4358043
21
-85.1303754
0
LINE
8
0
10
175.4358043
20
-85.1303754
11
177.5571246
21
-87.2516957
0
LINE
8
0
10
90.0571246
20
-65.5141957
11
90.0641957
21
-65.5071246
0
LINE
8
0
10
90.0641957
20
-65.5071246
11
87.9428754
21
-63.3858043
0
LINE
8
0
10
87.9428754
20
-63.3858043
11
87.9358043
21
-63.3928754
0
LINE
8
0
10
87.9358043
20
-63.3928754
11
90.0571246
21
-65.5141957
0
LINE
8
0
10
76.0571246
20
-65.5141957
11
76.0641957
21
-65.5071246
0
LINE
8
0
10
76.0641957
20
-65.5071246
11
73.9428754
21
-63.3858043
0
LINE
8
0
10
73.9428754
20
-63.3858043
11
73.9358043
21
-63.3928754
0
LINE
8
0
10
73.9358043
20
-63.3928754
11
76.0571246
21
-65.5141957
0
LINE
8
0
10
143.5571246
20
-75.5641957
11
143.5641957
21
-75.5571246
0
LINE
8
0
10
143.5641957
20
-75.5571246
11
141.4428754
21
-73.4358043
0
LINE
8
0
10
141.4428754
20
-73.4358043
11
141.4358043
21
-73.4428754
0
LINE
8
0
10
141.4358043
20
-73.4428754
11
143.5571246
21
-75.5641957
0
LINE
8
0
10
143.5571246
20
-56.5141957
11
143.5641957
21
-56.5071246
0
LINE
8
0
10
143.5641957
20
-56.5071246
11
141.4428754
21
-54.3858043
0
LINE
8
0
10
141.4428754
20
-54.3858043
11
141.4358043
21
-54.3928754
0
LINE
8
0
10
141.4358043
20
-54.3928754
11
143.5571246
21
-56.5141957
0
LINE
8
0
10
143.5571246
20
-94.6141957
11
143.5641957
21
-94.6071246
0
LINE
8
0
10
143.5641957
20
-94.6071246
11
141.4428754
21
-92.4858043
0
LINE
8
0
10
141.4428754
20
-92.4858043
11
141.4358043
21
-92.4928754
0
LINE
8
0
10
141.4358043
20
-92.4928754
11
143.5571246
21
-94.6141957
0
LINE
8
0
10
124.5071246
20
-75.5641957
11
124.5141957
21
-75.5571246
0
LINE
8
0
10
124.5141957
20
-75.5571246
11
122.3928754
21
-73.4358043
0
LINE
8
0
10
122.3928754
20
-73.4358043
11
122.3858043
21
-73.4428754
0
LINE
8
0
10
122.3858043
20
-73.4428754
11
124.5071246
21
-75.5641957
0
LINE
8
0
10
162.6071246
20
-75.5641957
11
162.6141957
21
-75.5571246
0
LINE
8
0
10
162.6141957
20
-75.5571246
11
160.4928754
21
-73.4358043
0
LINE
8
0
10
160.4928754
20
-73.4358043
11
160.4858043
21
-73.4428754
0
LINE
8
0
10
160.4858043
20
-73.4428754
11
162.6071246
21
-75.5641957
0
ARC
8
0
10
101.15
20
-98.85
40
0.4
50
225.7162091
51
584.2837909
0
ARC
8
0
10
101.15
20
-81.85
40
0.4
50
225.7162091
51
584.2837909
0
ARC
8
0
10
101.15
20
-64.85
40
0.4
50
225.7162091
51
584.2837909
0
ARC
8
0
10
118.15
20
-98.85
40
0.4
50
225.7162091
51
584.2837909
0
ARC
8
0
10
118.15
20
-81.85
40
0.4
50
225.7162091
51
584.2837909
0
ARC
8
0
10
118.15
20
-64.85
40
0.4
50
225.7162091
51
584.2837909
0
ARC
8
0
10
135.15
20
-98.85
40
0.4
50
225.7162091
51
584.2837909
0
ARC
8
0
10
135.15
20
-81.85
40
0.4
50
225.7162091
51
584.2837909
0
ARC
8
0
10
135.15
20
-64.85
40
0.4
50
225.7162091
51
584.2837909
0
ARC
8
0
10
152.15
20
-98.85
40
0.4
50
225.7162091
51
584.2837909
0
ARC
8
0
10
152.15
20
-81.85
40
0.4
50
225.7162091
51
584.2837909
0
ARC
8
0
10
152.15
20
-64.85
40
0.4
50
225.7162091
51
584.2837909
0
ARC
8
0
10
169.15
20
-98.85
40
0.4
50
225.7162091
51
584.2837909
0
ARC
8
0
10
169.15
20
-81.85
40
0.4
50
225.7162091
51
584.2837909
0
ARC
8
0
10
169.15
20
-64.85
40
0.4
50
225.7162091
51
584.2837909
0
ARC
8
0
10
186.15
20
-90.35
40
0.4
50
225.7162091
51
584.2837909
0
ARC
8
0
10
186.15
20
-69.1
40
0.4
50
225.7162091
51
584.2837909
0
ARC
8
0
10
78.7857713
20
-129.2360318
40
0.4
50
237.7162198
51
596.2837878
0
ARC
8
0
10
95.3793688
20
-123.1717774
40
0.4
50
234.716218
51
593.283787
0
ARC
8
0
10
113.7463237
20
-118.5187404
40
0.4
50
222.716216
51
581.2837795
0
ARC
8
0
10
56.15
20
-34.85
40
0.4
50
225.7162091
51
584.2837909
0
ARC
8
0
10
56.15
20
-153.85
40
0.4
50
225.7162091
51
584.2837909
0
ARC
8
0
10
92.15
20
-65.7
40
0.4
50
225.7162091
51
584.2837909
0
ARC
8
0
10
74.15
20
-65.7
40
0.4
50
225.7162091
51
448.9958831
0
ARC
8
0
10
74.15
20
-65.7
40
0.4
50
451.0220246
51
584.2837909
0
ARC
8
0
10
92.15
20
-99.1
40
0.4
50
225.7162091
51
584.2837909
0
ARC
8
0
10
74.15
20
-99.1
40
0.4
50
225.7162091
51
584.2837909
0
ARC
8
0
10
83.15
20
-82.4
40
0.4
50
225.7162091
51
584.2837909
0
ARC
8
0
10
177.65
20
-65.9125
40
0.4
50
225.7162091
51
584.2837909
0
ARC
8
0
10
177.65
20
-85.0375
40
0.4
50
225.7162091
51
584.2837909
0
ARC
8
0
10
90.15
20
-63.3
40
0.4
50
225.7162091
51
584.2837909
0
ARC
8
0
10
76.15
20
-63.3
40
0.4
50
225.7162091
51
584.2837909
0
ARC
8
0
10
143.65
20
-73.35
40
0.4
50
225.7162091
51
584.2837909
0
ARC
8
0
10
143.65
20
-54.3
40
0.4
50
225.7162091
51
584.2837909
0
ARC
8
0
10
143.65
20
-92.4
40
0.4
50
225.7162091
51
584.2837909
0
ARC
8
0
10
124.6
20
-73.35
40
0.4
50
225.7162091
51
584.2837909
0
ARC
8
0
10
162.7
20
-73.35
40
0.4
50
225.7162091
51
584.2837909
0
CIRCLE
8
0
10
176.5
20
-67.0625
40
1.1
0
CIRCLE
8
0
10
176.5
20
-86.1875
40
1.1
0
CIRCLE
8
0
10
89
20
-64.45
40
1.1
0
CIRCLE
8
0
10
75
20
-64.45
40
1.1
0
CIRCLE
8
0
10
142.5
20
-55.45
40
1.1
0
CIRCLE
8
0
10
142.5
20
-93.55
40
1.1
0
CIRCLE
8
0
10
123.45
20
-74.5
40
1.1
0
CIRCLE
8
0
10
161.55
20
-74.5
40
1.1
0
LINE
8
0
10
93.1
20
-106.9
11
106.9
21
-106.9
0
LINE
8
0
10
106.9
20
-106.9
11
106.9
21
-93.1
0
LINE
8
0
10
106.9
20
-93.1
11
93.1
21
-93.1
0
LINE
8
0
10
93.1
20
-93.1
11
93.1
21
-106.9
0
LINE
8
0
10
93.1
20
-89.9
11
106.9
21
-89.9
0
LINE
8
0
10
106.9
20
-89.9
11
106.9
21
-76.1
0
LINE
8
0
10
106.9
20
-76.1
11
93.1
21
-76.1
0
LINE
8
0
10
93.1
20
-76.1
11
93.1
21
-89.9
0
LINE
8
0
10
93.1
20
-72.9
11
106.9
21
-72.9
0
LINE
8
0
10
106.9
20
-72.9
11
106.9
21
-59.1
0
LINE
8
0
10
106.9
20
-59.1
11
93.1
21
-59.1
0
LINE
8
0
10
93.1
20
-59.1
11
93.1
21
-72.9
0
LINE
8
0
10
110.1
20
-106.9
11
123.9
21
-106.9
0
LINE
8
0
10
123.9
20
-106.9
11
123.9
21
-93.1
0
LINE
8
0
10
123.9
20
-93.1
11
110.1
21
-93.1
0
LINE
8
0
10
110.1
20
-93.1
11
110.1
21
-106.9
0
LINE
8
0
10
110.1
20
-89.9
11
123.9
21
-89.9
0
LINE
8
0
10
123.9
20
-89.9
11
123.9
21
-76.1
0
LINE
8
0
10
123.9
20
-76.1
11
110.1
21
-76.1
0
LINE
8
0
10
110.1
20
-76.1
11
110.1
21
-89.9
0
LINE
8
0
10
110.1
20
-72.9
11
123.9
21
-72.9
0
LINE
8
0
10
123.9
20
-72.9
11
123.9
21
-59.1
0
LINE
8
0
10
123.9
20
-59.1
11
110.1
21
-59.1
0
LINE
8
0
10
110.1
20
-59.1
11
110.1
21
-72.9
0
LINE
8
0
10
127.1
20
-106.9
11
140.9
21
-106.9
0
LINE
8
0
10
140.9
20
-106.9
11
140.9
21
-93.1
0
LINE
8
0
10
140.9
20
-93.1
11
127.1
21
-93.1
0
LINE
8
0
10
127.1
20
-93.1
11
127.1
21
-106.9
0
LINE
8
0
10
127.1
20
-89.9
11
140.9
21
-89.9
0
LINE
8
0
10
140.9
20
-89.9
11
140.9
21
-76.1
0
LINE
8
0
10
140.9
20
-76.1
11
127.1
21
-76.1
0
LINE
8
0
10
127.1
20
-76.1
11
127.1
21
-89.9
0
LINE
8
0
10
127.1
20
-72.9
11
140.9
21
-72.9
0
LINE
8
0
10
140.9
20
-72.9
11
140.9
21
-59.1
0
LINE
8
0
10
140.9
20
-59.1
11
127.1
21
-59.1
0
LINE
8
0
10
127.1
20
-59.1
11
127.1
21
-72.9
0
LINE
8
0
10
144.1
20
-106.9
11
157.9
21
-106.9
0
LINE
8
0
10
157.9
20
-106.9
11
157.9
21
-93.1
0
LINE
8
0
10
157.9
20
-93.1
11
144.1
21
-93.1
0
LINE
8
0
10
144.1
20
-93.1
11
144.1
21
-106.9
0
LINE
8
0
10
144.1
20
-89.9
11
157.9
21
-89.9
0
LINE
8
0
10
157.9
20
-89.9
11
157.9
21
-76.1
0
LINE
8
0
10
157.9
20
-76.1
11
144.1
21
-76.1
0
LINE
8
0
10
144.1
20
-76.1
11
144.1
21
-89.9
0
LINE
8
0
10
144.1
20
-72.9
11
157.9
21
-72.9
0
LINE
8
0
10
157.9
20
-72.9
11
157.9
21
-59.1
0
LINE
8
0
10
157.9
20
-59.1
11
144.1
21
-59.1
0
LINE
8
0
10
144.1
20
-59.1
11
144.1
21
-72.9
0
LINE
8
0
10
161.1
20
-106.9
11
174.9
21
-106.9
0
LINE
8
0
10
174.9
20
-106.9
11
174.9
21
-93.1
0
LINE
8
0
10
174.9
20
-93.1
11
161.1
21
-93.1
0
LINE
8
0
10
161.1
20
-93.1
11
161.1
21
-106.9
0
LINE
8
0
10
161.1
20
-89.9
11
174.9
21
-89.9
0
LINE
8
0
10
174.9
20
-89.9
11
174.9
21
-76.1
0
LINE
8
0
10
174.9
20
-76.1
11
161.1
21
-76.1
0
LINE
8
0
10
161.1
20
-76.1
11
161.1
21
-89.9
0
LINE
8
0
10
161.1
20
-72.9
11
174.9
21
-72.9
0
LINE
8
0
10
174.9
20
-72.9
11
174.9
21
-59.1
0
LINE
8
0
10
174.9
20
-59.1
11
161.1
21
-59.1
0
LINE
8
0
10
161.1
20
-59.1
11
161.1
21
-72.9
0
LINE
8
0
10
178.1
20
-98.4
11
191.9
21
-98.4
0
LINE
8
0
10
191.9
20
-98.4
11
191.9
21
-84.6
0
LINE
8
0
10
191.9
20
-84.6
11
178.1
21
-84.6
0
LINE
8
0
10
178.1
20
-84.6
11
178.1
21
-98.4
0
LINE
8
0
10
178.1
20
-77.15
11
191.9
21
-77.15
0
LINE
8
0
10
191.9
20
-77.15
11
191.9
21
-63.35
0
LINE
8
0
10
191.9
20
-63.35
11
178.1
21
-63.35
0
LINE
8
0
10
178.1
20
-63.35
11
178.1
21
-77.15
0
LINE
8
0
10
72.5853722
20
-138.7838091
11
86.0838091
21
-135.9146278
0
LINE
8
0
10
86.0838091
20
-135.9146278
11
83.2146278
21
-122.4161909
0
LINE
8
0
10
83.2146278
20
-122.4161909
11
69.7161909
21
-125.2853722
0
LINE
8
0
10
69.7161909
20
-125.2853722
11
72.5853722
21
-138.7838091
0
LINE
8
0
10
88.6877751
20
-132.381966
11
102.3178742
21
-130.2231703
0
LINE
8
0
10
102.3178742
20
-130.2231703
11
100.1590785
21
-116.5930712
0
LINE
8
0
10
100.1590785
20
-116.5930712
11
86.5289794
21
-118.7518669
0
LINE
8
0
10
86.5289794
20
-118.7518669
11
88.6877751
21
-132.381966
0
LINE
8
0
10
105.2860515
20
-126.1364037
11
119.0671391
21
-126.8586399
0
LINE
8
0
10
119.0671391
20
-126.8586399
11
119.7893753
21
-113.0775523
0
LINE
8
0
10
119.7893753
20
-113.0775523
11
106.0082877
21
-112.3553161
0
LINE
8
0
10
106.0082877
20
-112.3553161
11
105.2860515
21
-126.1364037
0
CIRCLE
8
0
10
176.5
20
-67.0625
40
1.7
0
CIRCLE
8
0
10
176.5
20
-86.1875
40
1.7
0
LINE
8
0
10
74.75
20
-100.25
11
89.25
21
-100.25
0
LINE
8
0
10
91
20
-98.5
11
91
21
-68.6
0
LINE
8
0
10
89.25
20
-66.85
11
74.75
21
-66.85
0
LINE
8
0
10
73
20
-68.6
11
73
21
-98.5
0
ARC
8
0
10
89.25
20
-98.5
40
1.75
50
270
51
0
0
ARC
8
0
10
89.25
20
-68.6
40
1.75
50
0
51
90
0
ARC
8
0
10
74.75
20
-68.6
40
1.75
50
90
51
180
0
ARC
8
0
10
74.75
20
-98.5
40
1.75
50
180
51
270
0
CIRCLE
8
0
10
142.5
20
-74.5
40
20.55
0
ENDSEC
0
EOF