<?xml version="1.0"?>
<svg
  xmlns="http://www.w3.org/2000/svg"
  xmlns:xlink="http://www.w3.org/1999/xlink" version="1.1"
  preserveAspectRatio="xMinYMin meet"
  viewBox="52.5 33.5 141 124"
  width="100%" height="100%"
>
  <g stroke="#000000" stroke-width="0.1%" fill="none" transform="matrix(1,0,0,-1,0,0)">
    <g stroke="rgb(0, 0, 0)"><path d="M52.5,-38.5L57.5,-38.5" /></g>
<g stroke="rgb(0, 0, 0)"><path d="M57.5,-38.5L57.5,-33.5" /></g>
<g stroke="rgb(0, 0, 0)"><path d="M57.5,-33.5L52.5,-33.5" /></g>
<g stroke="rgb(0, 0, 0)"><path d="M52.5,-33.5L52.5,-38.5" /></g>
<g stroke="rgb(0, 0, 0)"><path d="M52.5,-157.5L57.5,-157.5" /></g>
<g stroke="rgb(0, 0, 0)"><path d="M57.5,-157.5L57.5,-152.5" /></g>
<g stroke="rgb(0, 0, 0)"><path d="M57.5,-152.5L52.5,-152.5" /></g>
<g stroke="rgb(0, 0, 0)"><path d="M52.5,-152.5L52.5,-157.5" /></g>
<g stroke="rgb(0, 0, 0)"><path d="M91.5,-108.5L176.5,-108.5" /></g>
<g stroke="rgb(0, 0, 0)"><path d="M108.5,-108.5L108.5,-57.5" /></g>
<g stroke="rgb(0, 0, 0)"><path d="M91.5,-91.5L176.5,-91.5" /></g>
<g stroke="rgb(0, 0, 0)"><path d="M91.5,-108.5L91.5,-57.5" /></g>
<g stroke="rgb(0, 0, 0)"><path d="M91.5,-74.5L176.5,-74.5" /></g>
<g stroke="rgb(0, 0, 0)"><path d="M91.5,-57.5L176.5,-57.5" /></g>
<g stroke="rgb(0, 0, 0)"><path d="M125.5,-108.5L125.5,-57.5" /></g>
<g stroke="rgb(0, 0, 0)"><path d="M142.5,-108.5L142.5,-57.5" /></g>
<g stroke="rgb(0, 0, 0)"><path d="M159.5,-108.5L159.5,-57.5" /></g>
<g stroke="rgb(0, 0, 0)"><path d="M176.5,-108.5L176.5,-57.5" /></g>
<g stroke="rgb(0, 0, 0)"><path d="M176.5,-102.125L193.5,-102.125" /></g>
<g stroke="rgb(0, 0, 0)"><path d="M193.5,-102.125L193.5,-59.625" /></g>
<g stroke="rgb(0, 0, 0)"><path d="M176.5,-80.875L193.5,-80.875" /></g>
<g stroke="rgb(0, 0, 0)"><path d="M193.5,-59.625L176.5,-59.625" /></g>
<g stroke="rgb(0, 0, 0)"><path d="M71.7948071,-142.7600676L88.4233163,-139.2255689" /></g>
<g stroke="rgb(0, 0, 0)"><path d="M88.4233163,-139.2255689L84.0051929,-118.4399324" /></g>
<g stroke="rgb(0, 0, 0)"><path d="M84.0051929,-118.4399324L67.3766837,-121.9744311" /></g>
<g stroke="rgb(0, 0, 0)"><path d="M67.3766837,-121.9744311L71.7948071,-142.7600676" /></g>
<g stroke="rgb(0, 0, 0)"><path d="M87.6901921,-136.3114002L104.4808939,-133.6520143" /></g>
<g stroke="rgb(0, 0, 0)"><path d="M104.4808939,-133.6520143L101.1566615,-112.663637" /></g>
<g stroke="rgb(0, 0, 0)"><path d="M101.1566615,-112.663637L84.3659597,-115.3230229" /></g>
<g stroke="rgb(0, 0, 0)"><path d="M84.3659597,-115.3230229L87.6901921,-136.3114002" /></g>
<g stroke="rgb(0, 0, 0)"><path d="M103.4932928,-129.7725612L120.4699949,-130.6622724" /></g>
<g stroke="rgb(0, 0, 0)"><path d="M120.4699949,-130.6622724L121.582134,-109.4413948" /></g>
<g stroke="rgb(0, 0, 0)"><path d="M121.582134,-109.4413948L104.6054319,-108.5516836" /></g>
<g stroke="rgb(0, 0, 0)"><path d="M104.6054319,-108.5516836L103.4932928,-129.7725612" /></g>
<g stroke="rgb(0, 0, 0)"><path d="M98.9428754,-101.0641957L100.8707149,-99.1363561" /></g>
<g stroke="rgb(0, 0, 0)"><path d="M100.8636439,-99.1292851L98.9358043,-101.0571246" /></g>
<g stroke="rgb(0, 0, 0)"><path d="M98.9358043,-101.0571246L98.9428754,-101.0641957" /></g>
<g stroke="rgb(0, 0, 0)"><path d="M98.9428754,-84.0641957L100.8707149,-82.1363561" /></g>
<g stroke="rgb(0, 0, 0)"><path d="M100.8636439,-82.1292851L98.9358043,-84.0571246" /></g>
<g stroke="rgb(0, 0, 0)"><path d="M98.9358043,-84.0571246L98.9428754,-84.0641957" /></g>
<g stroke="rgb(0, 0, 0)"><path d="M98.9428754,-67.0641957L100.8707149,-65.1363561" /></g>
<g stroke="rgb(0, 0, 0)"><path d="M100.8636439,-65.1292851L98.9358043,-67.0571246" /></g>
<g stroke="rgb(0, 0, 0)"><path d="M98.9358043,-67.0571246L98.9428754,-67.0641957" /></g>
<g stroke="rgb(0, 0, 0)"><path d="M115.9428754,-101.0641957L117.8707149,-99.1363561" /></g>
<g stroke="rgb(0, 0, 0)"><path d="M117.8636439,-99.1292851L115.9358043,-101.0571246" /></g>
<g stroke="rgb(0, 0, 0)"><path d="M115.9358043,-101.0571246L115.9428754,-101.0641957" /></g>
<g stroke="rgb(0, 0, 0)"><path d="M115.9428754,-84.0641957L117.8707149,-82.1363561" /></g>
<g stroke="rgb(0, 0, 0)"><path d="M117.8636439,-82.1292851L115.9358043,-84.0571246" /></g>
<g stroke="rgb(0, 0, 0)"><path d="M115.9358043,-84.0571246L115.9428754,-84.0641957" /></g>
<g stroke="rgb(0, 0, 0)"><path d="M115.9428754,-67.0641957L117.8707149,-65.1363561" /></g>
<g stroke="rgb(0, 0, 0)"><path d="M117.8636439,-65.1292851L115.9358043,-67.0571246" /></g>
<g stroke="rgb(0, 0, 0)"><path d="M115.9358043,-67.0571246L115.9428754,-67.0641957" /></g>
<g stroke="rgb(0, 0, 0)"><path d="M132.9428754,-101.0641957L134.8707149,-99.1363561" /></g>
<g stroke="rgb(0, 0, 0)"><path d="M134.8636439,-99.1292851L132.9358043,-101.0571246" /></g>
<g stroke="rgb(0, 0, 0)"><path d="M132.9358043,-101.0571246L132.9428754,-101.0641957" /></g>
<g stroke="rgb(0, 0, 0)"><path d="M132.9428754,-84.0641957L134.8707149,-82.1363561" /></g>
<g stroke="rgb(0, 0, 0)"><path d="M134.8636439,-82.1292851L132.9358043,-84.0571246" /></g>
<g stroke="rgb(0, 0, 0)"><path d="M132.9358043,-84.0571246L132.9428754,-84.0641957" /></g>
<g stroke="rgb(0, 0, 0)"><path d="M132.9428754,-67.0641957L134.8707149,-65.1363561" /></g>
<g stroke="rgb(0, 0, 0)"><path d="M134.8636439,-65.1292851L132.9358043,-67.0571246" /></g>
<g stroke="rgb(0, 0, 0)"><path d="M132.9358043,-67.0571246L132.9428754,-67.0641957" /></g>
<g stroke="rgb(0, 0, 0)"><path d="M149.9428754,-101.0641957L151.8707149,-99.1363561" /></g>
<g stroke="rgb(0, 0, 0)"><path d="M151.8636439,-99.1292851L149.9358043,-101.0571246" /></g>
<g stroke="rgb(0, 0, 0)"><path d="M149.9358043,-101.0571246L149.9428754,-101.0641957" /></g>
<g stroke="rgb(0, 0, 0)"><path d="M149.9428754,-84.0641957L151.8707149,-82.1363561" /></g>
<g stroke="rgb(0, 0, 0)"><path d="M151.8636439,-82.1292851L149.9358043,-84.0571246" /></g>
<g stroke="rgb(0, 0, 0)"><path d="M149.9358043,-84.0571246L149.9428754,-84.0641957" /></g>
<g stroke="rgb(0, 0, 0)"><path d="M149.9428754,-67.0641957L151.8707149,-65.1363561" /></g>
<g stroke="rgb(0, 0, 0)"><path d="M151.8636439,-65.1292851L149.9358043,-67.0571246" /></g>
<g stroke="rgb(0, 0, 0)"><path d="M149.9358043,-67.0571246L149.9428754,-67.0641957" /></g>
<g stroke="rgb(0, 0, 0)"><path d="M166.9428754,-101.0641957L168.8707149,-99.1363561" /></g>
<g stroke="rgb(0, 0, 0)"><path d="M168.8636439,-99.1292851L166.9358043,-101.0571246" /></g>
<g stroke="rgb(0, 0, 0)"><path d="M166.9358043,-101.0571246L166.9428754,-101.0641957" /></g>
<g stroke="rgb(0, 0, 0)"><path d="M166.9428754,-84.0641957L168.8707149,-82.1363561" /></g>
<g stroke="rgb(0, 0, 0)"><path d="M168.8636439,-82.1292851L166.9358043,-84.0571246" /></g>
<g stroke="rgb(0, 0, 0)"><path d="M166.9358043,-84.0571246L166.9428754,-84.0641957" /></g>
<g stroke="rgb(0, 0, 0)"><path d="M166.9428754,-67.0641957L168.8707149,-65.1363561" /></g>
<g stroke="rgb(0, 0, 0)"><path d="M168.8636439,-65.1292851L166.9358043,-67.0571246" /></g>
<g stroke="rgb(0, 0, 0)"><path d="M166.9358043,-67.0571246L166.9428754,-67.0641957" /></g>
<g stroke="rgb(0, 0, 0)"><path d="M183.9428754,-92.5641957L185.8707149,-90.6363561" /></g>
<g stroke="rgb(0, 0, 0)"><path d="M185.8636439,-90.6292851L183.9358043,-92.5571246" /></g>
<g stroke="rgb(0, 0, 0)"><path d="M183.9358043,-92.5571246L183.9428754,-92.5641957" /></g>
<g stroke="rgb(0, 0, 0)"><path d="M183.9428754,-71.3141957L185.8707149,-69.3863561" /></g>
<g stroke="rgb(0, 0, 0)"><path d="M185.8636439,-69.3792851L183.9358043,-71.3071246" /></g>
<g stroke="rgb(0, 0, 0)"><path d="M183.9358043,-71.3071246L183.9428754,-71.3141957" /></g>
<g stroke="rgb(0, 0, 0)"><path d="M77.0872348,-131.860729L78.5721261,-129.574197" /></g>
<g stroke="rgb(0, 0, 0)"><path d="M78.5637394,-129.5687506L77.0788481,-131.8552827" /></g>
<g stroke="rgb(0, 0, 0)"><path d="M77.0788481,-131.8552827L77.0872348,-131.860729" /></g>
<g stroke="rgb(0, 0, 0)"><path d="M93.545794,-125.703983L95.1483182,-123.4982978" /></g>
<g stroke="rgb(0, 0, 0)"><path d="M95.140228,-123.49242L93.5377038,-125.6981052" /></g>
<g stroke="rgb(0, 0, 0)"><path d="M93.5377038,-125.6981052L93.545794,-125.703983" /></g>
<g stroke="rgb(0, 0, 0)"><path d="M111.4263418,-120.6143896L113.4524346,-118.7900875" /></g>
<g stroke="rgb(0, 0, 0)"><path d="M113.4457433,-118.782656L111.4196505,-120.6069582" /></g>
<g stroke="rgb(0, 0, 0)"><path d="M111.4196505,-120.6069582L111.4263418,-120.6143896" /></g>
<g stroke="rgb(0, 0, 0)"><path d="M53.9428754,-37.0641957L55.8707149,-35.1363561" /></g>
<g stroke="rgb(0, 0, 0)"><path d="M55.8636439,-35.1292851L53.9358043,-37.0571246" /></g>
<g stroke="rgb(0, 0, 0)"><path d="M53.9358043,-37.0571246L53.9428754,-37.0641957" /></g>
<g stroke="rgb(0, 0, 0)"><path d="M53.9428754,-156.0641957L55.8707149,-154.1363561" /></g>
<g stroke="rgb(0, 0, 0)"><path d="M55.8636439,-154.1292851L53.9358043,-156.0571246" /></g>
<g stroke="rgb(0, 0, 0)"><path d="M53.9358043,-156.0571246L53.9428754,-156.0641957" /></g>
<g stroke="rgb(0, 0, 0)"><path d="M89.9428754,-67.9141957L91.8707149,-65.9863561" /></g>
<g stroke="rgb(0, 0, 0)"><path d="M91.8636439,-65.9792851L89.9358043,-67.9071246" /></g>
<g stroke="rgb(0, 0, 0)"><path d="M89.9358043,-67.9071246L89.9428754,-67.9141957" /></g>
<g stroke="rgb(0, 0, 0)"><path d="M71.9428754,-67.9141957L73.8707149,-65.9863561" /></g>
<g stroke="rgb(0, 0, 0)"><path d="M73.8636439,-65.9792851L71.9358043,-67.9071246" /></g>
<g stroke="rgb(0, 0, 0)"><path d="M71.9358043,-67.9071246L71.9428754,-67.9141957" /></g>
<g stroke="rgb(0, 0, 0)"><path d="M89.9428754,-101.3141957L91.8707149,-99.3863561" /></g>
<g stroke="rgb(0, 0, 0)"><path d="M91.8636439,-99.3792851L89.9358043,-101.3071246" /></g>
<g stroke="rgb(0, 0, 0)"><path d="M89.9358043,-101.3071246L89.9428754,-101.3141957" /></g>
<g stroke="rgb(0, 0, 0)"><path d="M71.9428754,-101.3141957L73.8707149,-99.3863561" /></g>
<g stroke="rgb(0, 0, 0)"><path d="M73.8636439,-99.3792851L71.9358043,-101.3071246" /></g>
<g stroke="rgb(0, 0, 0)"><path d="M71.9358043,-101.3071246L71.9428754,-101.3141957" /></g>
<g stroke="rgb(0, 0, 0)"><path d="M80.9428754,-84.6141957L82.8707149,-82.6863561" /></g>
<g stroke="rgb(0, 0, 0)"><path d="M82.8636439,-82.6792851L80.9358043,-84.6071246" /></g>
<g stroke="rgb(0, 0, 0)"><path d="M80.9358043,-84.6071246L80.9428754,-84.6141957" /></g>
<g stroke="rgb(0, 0, 0)"><path d="M175.4428754,-68.1266957L177.3707149,-66.1988561" /></g>
<g stroke="rgb(0, 0, 0)"><path d="M177.3636439,-66.1917851L175.4358043,-68.1196246" /></g>
<g stroke="rgb(0, 0, 0)"><path d="M175.4358043,-68.1196246L175.4428754,-68.1266957" /></g>
<g stroke="rgb(0, 0, 0)"><path d="M175.4428754,-87.2516957L177.3707149,-85.3238561" /></g>
<g stroke="rgb(0, 0, 0)"><path d="M177.3636439,-85.3167851L175.4358043,-87.2446246" /></g>
<g stroke="rgb(0, 0, 0)"><path d="M175.4358043,-87.2446246L175.4428754,-87.2516957" /></g>
<g stroke="rgb(0, 0, 0)"><path d="M87.9428754,-65.5141957L89.8707149,-63.5863561" /></g>
<g stroke="rgb(0, 0, 0)"><path d="M89.8636439,-63.5792851L87.9358043,-65.5071246" /></g>
<g stroke="rgb(0, 0, 0)"><path d="M87.9358043,-65.5071246L87.9428754,-65.5141957" /></g>
<g stroke="rgb(0, 0, 0)"><path d="M74.1570097,-65.3000614L75.8707149,-63.5863561" /></g>
<g stroke="rgb(0, 0, 0)"><path d="M75.8636439,-63.5792851L74.1428653,-65.3000636" /></g>
<g stroke="rgb(0, 0, 0)"><path d="M141.4428754,-75.5641957L143.3707149,-73.6363561" /></g>
<g stroke="rgb(0, 0, 0)"><path d="M143.3636439,-73.6292851L141.4358043,-75.5571246" /></g>
<g stroke="rgb(0, 0, 0)"><path d="M141.4358043,-75.5571246L141.4428754,-75.5641957" /></g>
<g stroke="rgb(0, 0, 0)"><path d="M141.4428754,-56.5141957L143.3707149,-54.5863561" /></g>
<g stroke="rgb(0, 0, 0)"><path d="M143.3636439,-54.5792851L141.4358043,-56.5071246" /></g>
<g stroke="rgb(0, 0, 0)"><path d="M141.4358043,-56.5071246L141.4428754,-56.5141957" /></g>
<g stroke="rgb(0, 0, 0)"><path d="M141.4428754,-94.6141957L143.3707149,-92.6863561" /></g>
<g stroke="rgb(0, 0, 0)"><path d="M143.3636439,-92.6792851L141.4358043,-94.6071246" /></g>
<g stroke="rgb(0, 0, 0)"><path d="M141.4358043,-94.6071246L141.4428754,-94.6141957" /></g>
<g stroke="rgb(0, 0, 0)"><path d="M122.3928754,-75.5641957L124.3207149,-73.6363561" /></g>
<g stroke="rgb(0, 0, 0)"><path d="M124.3136439,-73.6292851L122.3858043,-75.5571246" /></g>
<g stroke="rgb(0, 0, 0)"><path d="M122.3858043,-75.5571246L122.3928754,-75.5641957" /></g>
<g stroke="rgb(0, 0, 0)"><path d="M160.4928754,-75.5641957L162.4207149,-73.6363561" /></g>
<g stroke="rgb(0, 0, 0)"><path d="M162.4136439,-73.6292851L160.4858043,-75.5571246" /></g>
<g stroke="rgb(0, 0, 0)"><path d="M160.4858043,-75.5571246L160.4928754,-75.5641957" /></g>
<g stroke="rgb(0, 0, 0)"><path d="M101.0571246,-101.0641957L101.0641957,-101.0571246" /></g>
<g stroke="rgb(0, 0, 0)"><path d="M101.0641957,-101.0571246L98.9428754,-98.9358043" /></g>
<g stroke="rgb(0, 0, 0)"><path d="M98.9428754,-98.9358043L98.9358043,-98.9428754" /></g>
<g stroke="rgb(0, 0, 0)"><path d="M98.9358043,-98.9428754L101.0571246,-101.0641957" /></g>
<g stroke="rgb(0, 0, 0)"><path d="M101.0571246,-84.0641957L101.0641957,-84.0571246" /></g>
<g stroke="rgb(0, 0, 0)"><path d="M101.0641957,-84.0571246L98.9428754,-81.9358043" /></g>
<g stroke="rgb(0, 0, 0)"><path d="M98.9428754,-81.9358043L98.9358043,-81.9428754" /></g>
<g stroke="rgb(0, 0, 0)"><path d="M98.9358043,-81.9428754L101.0571246,-84.0641957" /></g>
<g stroke="rgb(0, 0, 0)"><path d="M101.0571246,-67.0641957L101.0641957,-67.0571246" /></g>
<g stroke="rgb(0, 0, 0)"><path d="M101.0641957,-67.0571246L98.9428754,-64.9358043" /></g>
<g stroke="rgb(0, 0, 0)"><path d="M98.9428754,-64.9358043L98.9358043,-64.9428754" /></g>
<g stroke="rgb(0, 0, 0)"><path d="M98.9358043,-64.9428754L101.0571246,-67.0641957" /></g>
<g stroke="rgb(0, 0, 0)"><path d="M118.0571246,-101.0641957L118.0641957,-101.0571246" /></g>
<g stroke="rgb(0, 0, 0)"><path d="M118.0641957,-101.0571246L115.9428754,-98.9358043" /></g>
<g stroke="rgb(0, 0, 0)"><path d="M115.9428754,-98.9358043L115.9358043,-98.9428754" /></g>
<g stroke="rgb(0, 0, 0)"><path d="M115.9358043,-98.9428754L118.0571246,-101.0641957" /></g>
<g stroke="rgb(0, 0, 0)"><path d="M118.0571246,-84.0641957L118.0641957,-84.0571246" /></g>
<g stroke="rgb(0, 0, 0)"><path d="M118.0641957,-84.0571246L115.9428754,-81.9358043" /></g>
<g stroke="rgb(0, 0, 0)"><path d="M115.9428754,-81.9358043L115.9358043,-81.9428754" /></g>
<g stroke="rgb(0, 0, 0)"><path d="M115.9358043,-81.9428754L118.0571246,-84.0641957" /></g>
<g stroke="rgb(0, 0, 0)"><path d="M118.0571246,-67.0641957L118.0641957,-67.0571246" /></g>
<g stroke="rgb(0, 0, 0)"><path d="M118.0641957,-67.0571246L115.9428754,-64.9358043" /></g>
<g stroke="rgb(0, 0, 0)"><path d="M115.9428754,-64.9358043L115.9358043,-64.9428754" /></g>
<g stroke="rgb(0, 0, 0)"><path d="M115.9358043,-64.9428754L118.0571246,-67.0641957" /></g>
<g stroke="rgb(0, 0, 0)"><path d="M135.0571246,-101.0641957L135.0641957,-101.0571246" /></g>
<g stroke="rgb(0, 0, 0)"><path d="M135.0641957,-101.0571246L132.9428754,-98.9358043" /></g>
<g stroke="rgb(0, 0, 0)"><path d="M132.9428754,-98.9358043L132.9358043,-98.9428754" /></g>
<g stroke="rgb(0, 0, 0)"><path d="M132.9358043,-98.9428754L135.0571246,-101.0641957" /></g>
<g stroke="rgb(0, 0, 0)"><path d="M135.0571246,-84.0641957L135.0641957,-84.0571246" /></g>
<g stroke="rgb(0, 0, 0)"><path d="M135.0641957,-84.0571246L132.9428754,-81.9358043" /></g>
<g stroke="rgb(0, 0, 0)"><path d="M132.9428754,-81.9358043L132.9358043,-81.9428754" /></g>
<g stroke="rgb(0, 0, 0)"><path d="M132.9358043,-81.9428754L135.0571246,-84.0641957" /></g>
<g stroke="rgb(0, 0, 0)"><path d="M135.0571246,-67.0641957L135.0641957,-67.0571246" /></g>
<g stroke="rgb(0, 0, 0)"><path d="M135.0641957,-67.0571246L132.9428754,-64.9358043" /></g>
<g stroke="rgb(0, 0, 0)"><path d="M132.9428754,-64.9358043L132.9358043,-64.9428754" /></g>
<g stroke="rgb(0, 0, 0)"><path d="M132.9358043,-64.9428754L135.0571246,-67.0641957" /></g>
<g stroke="rgb(0, 0, 0)"><path d="M152.0571246,-101.0641957L152.0641957,-101.0571246" /></g>
<g stroke="rgb(0, 0, 0)"><path d="M152.0641957,-101.0571246L149.9428754,-98.9358043" /></g>
<g stroke="rgb(0, 0, 0)"><path d="M149.9428754,-98.9358043L149.9358043,-98.9428754" /></g>
<g stroke="rgb(0, 0, 0)"><path d="M149.9358043,-98.9428754L152.0571246,-101.0641957" /></g>
<g stroke="rgb(0, 0, 0)"><path d="M152.0571246,-84.0641957L152.0641957,-84.0571246" /></g>
<g stroke="rgb(0, 0, 0)"><path d="M152.0641957,-84.0571246L149.9428754,-81.9358043" /></g>
<g stroke="rgb(0, 0, 0)"><path d="M149.9428754,-81.9358043L149.9358043,-81.9428754" /></g>
<g stroke="rgb(0, 0, 0)"><path d="M149.9358043,-81.9428754L152.0571246,-84.0641957" /></g>
<g stroke="rgb(0, 0, 0)"><path d="M152.0571246,-67.0641957L152.0641957,-67.0571246" /></g>
<g stroke="rgb(0, 0, 0)"><path d="M152.0641957,-67.0571246L149.9428754,-64.9358043" /></g>
<g stroke="rgb(0, 0, 0)"><path d="M149.9428754,-64.9358043L149.9358043,-64.9428754" /></g>
<g stroke="rgb(0, 0, 0)"><path d="M149.9358043,-64.9428754L152.0571246,-67.0641957" /></g>
<g stroke="rgb(0, 0, 0)"><path d="M169.0571246,-101.0641957L169.0641957,-101.0571246" /></g>
<g stroke="rgb(0, 0, 0)"><path d="M169.0641957,-101.0571246L166.9428754,-98.9358043" /></g>
<g stroke="rgb(0, 0, 0)"><path d="M166.9428754,-98.9358043L166.9358043,-98.9428754" /></g>
<g stroke="rgb(0, 0, 0)"><path d="M166.9358043,-98.9428754L169.0571246,-101.0641957" /></g>
<g stroke="rgb(0, 0, 0)"><path d="M169.0571246,-84.0641957L169.0641957,-84.0571246" /></g>
<g stroke="rgb(0, 0, 0)"><path d="M169.0641957,-84.0571246L166.9428754,-81.9358043" /></g>
<g stroke="rgb(0, 0, 0)"><path d="M166.9428754,-81.9358043L166.9358043,-81.9428754" /></g>
<g stroke="rgb(0, 0, 0)"><path d="M166.9358043,-81.9428754L169.0571246,-84.0641957" /></g>
<g stroke="rgb(0, 0, 0)"><path d="M169.0571246,-67.0641957L169.0641957,-67.0571246" /></g>
<g stroke="rgb(0, 0, 0)"><path d="M169.0641957,-67.0571246L166.9428754,-64.9358043" /></g>
<g stroke="rgb(0, 0, 0)"><path d="M166.9428754,-64.9358043L166.9358043,-64.9428754" /></g>
<g stroke="rgb(0, 0, 0)"><path d="M166.9358043,-64.9428754L169.0571246,-67.0641957" /></g>
<g stroke="rgb(0, 0, 0)"><path d="M186.0571246,-92.5641957L186.0641957,-92.5571246" /></g>
<g stroke="rgb(0, 0, 0)"><path d="M186.0641957,-92.5571246L183.9428754,-90.4358043" /></g>
<g stroke="rgb(0, 0, 0)"><path d="M183.9428754,-90.4358043L183.9358043,-90.4428754" /></g>
<g stroke="rgb(0, 0, 0)"><path d="M183.9358043,-90.4428754L186.0571246,-92.5641957" /></g>
<g stroke="rgb(0, 0, 0)"><path d="M186.0571246,-71.3141957L186.0641957,-71.3071246" /></g>
<g stroke="rgb(0, 0, 0)"><path d="M186.0641957,-71.3071246L183.9428754,-69.1858043" /></g>
<g stroke="rgb(0, 0, 0)"><path d="M183.9428754,-69.1858043L183.9358043,-69.1928754" /></g>
<g stroke="rgb(0, 0, 0)"><path d="M183.9358043,-69.1928754L186.0571246,-71.3141957" /></g>
<g stroke="rgb(0, 0, 0)"><path d="M79.1552827,-131.4211519L79.160729,-131.4127652" /></g>
<g stroke="rgb(0, 0, 0)"><path d="M79.160729,-131.4127652L76.6447173,-129.7788481" /></g>
<g stroke="rgb(0, 0, 0)"><path d="M76.6447173,-129.7788481L76.639271,-129.7872348" /></g>
<g stroke="rgb(0, 0, 0)"><path d="M76.639271,-129.7872348L79.1552827,-131.4211519" /></g>
<g stroke="rgb(0, 0, 0)"><path d="M95.6340134,-125.3732416L95.6398912,-125.3651514" /></g>
<g stroke="rgb(0, 0, 0)"><path d="M95.6398912,-125.3651514L93.2128402,-123.6017956" /></g>
<g stroke="rgb(0, 0, 0)"><path d="M93.2128402,-123.6017956L93.2069624,-123.6098858" /></g>
<g stroke="rgb(0, 0, 0)"><path d="M93.2069624,-123.6098858L95.6340134,-125.3732416" /></g>
<g stroke="rgb(0, 0, 0)"><path d="M113.5376936,-120.7250409L113.545125,-120.7183496" /></g>
<g stroke="rgb(0, 0, 0)"><path d="M113.545125,-120.7183496L111.5377332,-118.4889151" /></g>
<g stroke="rgb(0, 0, 0)"><path d="M111.5377332,-118.4889151L111.5303018,-118.4956064" /></g>
<g stroke="rgb(0, 0, 0)"><path d="M111.5303018,-118.4956064L113.5376936,-120.7250409" /></g>
<g stroke="rgb(0, 0, 0)"><path d="M56.0571246,-37.0641957L56.0641957,-37.0571246" /></g>
<g stroke="rgb(0, 0, 0)"><path d="M56.0641957,-37.0571246L53.9428754,-34.9358043" /></g>
<g stroke="rgb(0, 0, 0)"><path d="M53.9428754,-34.9358043L53.9358043,-34.9428754" /></g>
<g stroke="rgb(0, 0, 0)"><path d="M53.9358043,-34.9428754L56.0571246,-37.0641957" /></g>
<g stroke="rgb(0, 0, 0)"><path d="M56.0571246,-156.0641957L56.0641957,-156.0571246" /></g>
<g stroke="rgb(0, 0, 0)"><path d="M56.0641957,-156.0571246L53.9428754,-153.9358043" /></g>
<g stroke="rgb(0, 0, 0)"><path d="M53.9428754,-153.9358043L53.9358043,-153.9428754" /></g>
<g stroke="rgb(0, 0, 0)"><path d="M53.9358043,-153.9428754L56.0571246,-156.0641957" /></g>
<g stroke="rgb(0, 0, 0)"><path d="M92.0571246,-67.9141957L92.0641957,-67.9071246" /></g>
<g stroke="rgb(0, 0, 0)"><path d="M92.0641957,-67.9071246L89.9428754,-65.7858043" /></g>
<g stroke="rgb(0, 0, 0)"><path d="M89.9428754,-65.7858043L89.9358043,-65.7928754" /></g>
<g stroke="rgb(0, 0, 0)"><path d="M89.9358043,-65.7928754L92.0571246,-67.9141957" /></g>
<g stroke="rgb(0, 0, 0)"><path d="M74.0571246,-67.9141957L74.0641957,-67.9071246" /></g>
<g stroke="rgb(0, 0, 0)"><path d="M74.0641957,-67.9071246L71.9428754,-65.7858043" /></g>
<g stroke="rgb(0, 0, 0)"><path d="M71.9428754,-65.7858043L71.9358043,-65.7928754" /></g>
<g stroke="rgb(0, 0, 0)"><path d="M71.9358043,-65.7928754L74.0571246,-67.9141957" /></g>
<g stroke="rgb(0, 0, 0)"><path d="M92.0571246,-101.3141957L92.0641957,-101.3071246" /></g>
<g stroke="rgb(0, 0, 0)"><path d="M92.0641957,-101.3071246L89.9428754,-99.1858043" /></g>
<g stroke="rgb(0, 0, 0)"><path d="M89.9428754,-99.1858043L89.9358043,-99.1928754" /></g>
<g stroke="rgb(0, 0, 0)"><path d="M89.9358043,-99.1928754L92.0571246,-101.3141957" /></g>
<g stroke="rgb(0, 0, 0)"><path d="M74.0571246,-101.3141957L74.0641957,-101.3071246" /></g>
<g stroke="rgb(0, 0, 0)"><path d="M74.0641957,-101.3071246L71.9428754,-99.1858043" /></g>
<g stroke="rgb(0, 0, 0)"><path d="M71.9428754,-99.1858043L71.9358043,-99.1928754" /></g>
<g stroke="rgb(0, 0, 0)"><path d="M71.9358043,-99.1928754L74.0571246,-101.3141957" /></g>
<g stroke="rgb(0, 0, 0)"><path d="M83.0571246,-84.6141957L83.0641957,-84.6071246" /></g>
<g stroke="rgb(0, 0, 0)"><path d="M83.0641957,-84.6071246L80.9428754,-82.4858043" /></g>
<g stroke="rgb(0, 0, 0)"><path d="M80.9428754,-82.4858043L80.9358043,-82.4928754" /></g>
<g stroke="rgb(0, 0, 0)"><path d="M80.9358043,-82.4928754L83.0571246,-84.6141957" /></g>
<g stroke="rgb(0, 0, 0)"><path d="M177.5571246,-68.1266957L177.5641957,-68.1196246" /></g>
<g stroke="rgb(0, 0, 0)"><path d="M177.5641957,-68.1196246L175.4428754,-65.9983043" /></g>
<g stroke="rgb(0, 0, 0)"><path d="M175.4428754,-65.9983043L175.4358043,-66.0053754" /></g>
<g stroke="rgb(0, 0, 0)"><path d="M175.4358043,-66.0053754L177.5571246,-68.1266957" /></g>
<g stroke="rgb(0, 0, 0)"><path d="M177.5571246,-87.2516957L177.5641957,-87.2446246" /></g>
<g stroke="rgb(0, 0, 0)"><path d="M177.5641957,-87.2446246L175.4428754,-85.1233043" /></g>
<g stroke="rgb(0, 0, 0)"><path d="M175.4428754,-85.1233043L175.4358043,-85.1303754" /></g>
<g stroke="rgb(0, 0, 0)"><path d="M175.4358043,-85.1303754L177.5571246,-87.2516957" /></g>
<g stroke="rgb(0, 0, 0)"><path d="M90.0571246,-65.5141957L90.0641957,-65.5071246" /></g>
<g stroke="rgb(0, 0, 0)"><path d="M90.0641957,-65.5071246L87.9428754,-63.3858043" /></g>
<g stroke="rgb(0, 0, 0)"><path d="M87.9428754,-63.3858043L87.9358043,-63.3928754" /></g>
<g stroke="rgb(0, 0, 0)"><path d="M87.9358043,-63.3928754L90.0571246,-65.5141957" /></g>
<g stroke="rgb(0, 0, 0)"><path d="M76.0571246,-65.5141957L76.0641957,-65.5071246" /></g>
<g stroke="rgb(0, 0, 0)"><path d="M76.0641957,-65.5071246L73.9428754,-63.3858043" /></g>
<g stroke="rgb(0, 0, 0)"><path d="M73.9428754,-63.3858043L73.9358043,-63.3928754" /></g>
<g stroke="rgb(0, 0, 0)"><path d="M73.9358043,-63.3928754L76.0571246,-65.5141957" /></g>
<g stroke="rgb(0, 0, 0)"><path d="M143.5571246,-75.5641957L143.5641957,-75.5571246" /></g>
<g stroke="rgb(0, 0, 0)"><path d="M143.5641957,-75.5571246L141.4428754,-73.4358043" /></g>
<g stroke="rgb(0, 0, 0)"><path d="M141.4428754,-73.4358043L141.4358043,-73.4428754" /></g>
<g stroke="rgb(0, 0, 0)"><path d="M141.4358043,-73.4428754L143.5571246,-75.5641957" /></g>
<g stroke="rgb(0, 0, 0)"><path d="M143.5571246,-56.5141957L143.5641957,-56.5071246" /></g>
<g stroke="rgb(0, 0, 0)"><path d="M143.5641957,-56.5071246L141.4428754,-54.3858043" /></g>
<g stroke="rgb(0, 0, 0)"><path d="M141.4428754,-54.3858043L141.4358043,-54.3928754" /></g>
<g stroke="rgb(0, 0, 0)"><path d="M141.4358043,-54.3928754L143.5571246,-56.5141957" /></g>
<g stroke="rgb(0, 0, 0)"><path d="M143.5571246,-94.6141957L143.5641957,-94.6071246" /></g>
<g stroke="rgb(0, 0, 0)"><path d="M143.5641957,-94.6071246L141.4428754,-92.4858043" /></g>
<g stroke="rgb(0, 0, 0)"><path d="M141.4428754,-92.4858043L141.4358043,-92.4928754" /></g>
<g stroke="rgb(0, 0, 0)"><path d="M141.4358043,-92.4928754L143.5571246,-94.6141957" /></g>
<g stroke="rgb(0, 0, 0)"><path d="M124.5071246,-75.5641957L124.5141957,-75.5571246" /></g>
<g stroke="rgb(0, 0, 0)"><path d="M124.5141957,-75.5571246L122.3928754,-73.4358043" /></g>
<g stroke="rgb(0, 0, 0)"><path d="M122.3928754,-73.4358043L122.3858043,-73.4428754" /></g>
<g stroke="rgb(0, 0, 0)"><path d="M122.3858043,-73.4428754L124.5071246,-75.5641957" /></g>
<g stroke="rgb(0, 0, 0)"><path d="M162.6071246,-75.5641957L162.6141957,-75.5571246" /></g>
<g stroke="rgb(0, 0, 0)"><path d="M162.6141957,-75.5571246L160.4928754,-73.4358043" /></g>
<g stroke="rgb(0, 0, 0)"><path d="M160.4928754,-73.4358043L160.4858043,-73.4428754" /></g>
<g stroke="rgb(0, 0, 0)"><path d="M160.4858043,-73.4428754L162.6071246,-75.5641957" /></g>
<g stroke="rgb(0, 0, 0)"><path d="M 100.87071488541505 -99.13635611530272 A 0.4 0.4 0 1 1 100.86364388469728 -99.12928511458495" /></g>
<g stroke="rgb(0, 0, 0)"><path d="M 100.87071488541505 -82.13635611530272 A 0.4 0.4 0 1 1 100.86364388469728 -82.12928511458495" /></g>
<g stroke="rgb(0, 0, 0)"><path d="M 100.87071488541505 -65.13635611530272 A 0.4 0.4 0 1 1 100.86364388469728 -65.12928511458495" /></g>
<g stroke="rgb(0, 0, 0)"><path d="M 117.87071488541505 -99.13635611530272 A 0.4 0.4 0 1 1 117.86364388469728 -99.12928511458495" /></g>
<g stroke="rgb(0, 0, 0)"><path d="M 117.87071488541505 -82.13635611530272 A 0.4 0.4 0 1 1 117.86364388469728 -82.12928511458495" /></g>
<g stroke="rgb(0, 0, 0)"><path d="M 117.87071488541505 -65.13635611530272 A 0.4 0.4 0 1 1 117.86364388469728 -65.12928511458495" /></g>
<g stroke="rgb(0, 0, 0)"><path d="M 134.87071488541505 -99.13635611530272 A 0.4 0.4 0 1 1 134.86364388469727 -99.12928511458495" /></g>
<g stroke="rgb(0, 0, 0)"><path d="M 134.87071488541505 -82.13635611530272 A 0.4 0.4 0 1 1 134.86364388469727 -82.12928511458495" /></g>
<g stroke="rgb(0, 0, 0)"><path d="M 134.87071488541505 -65.13635611530272 A 0.4 0.4 0 1 1 134.86364388469727 -65.12928511458495" /></g>
<g stroke="rgb(0, 0, 0)"><path d="M 151.87071488541505 -99.13635611530272 A 0.4 0.4 0 1 1 151.86364388469727 -99.12928511458495" /></g>
<g stroke="rgb(0, 0, 0)"><path d="M 151.87071488541505 -82.13635611530272 A 0.4 0.4 0 1 1 151.86364388469727 -82.12928511458495" /></g>
<g stroke="rgb(0, 0, 0)"><path d="M 151.87071488541505 -65.13635611530272 A 0.4 0.4 0 1 1 151.86364388469727 -65.12928511458495" /></g>
<g stroke="rgb(0, 0, 0)"><path d="M 168.87071488541505 -99.13635611530272 A 0.4 0.4 0 1 1 168.86364388469727 -99.12928511458495" /></g>
<g stroke="rgb(0, 0, 0)"><path d="M 168.87071488541505 -82.13635611530272 A 0.4 0.4 0 1 1 168.86364388469727 -82.12928511458495" /></g>
<g stroke="rgb(0, 0, 0)"><path d="M 168.87071488541505 -65.13635611530272 A 0.4 0.4 0 1 1 168.86364388469727 -65.12928511458495" /></g>
<g stroke="rgb(0, 0, 0)"><path d="M 185.87071488541505 -90.63635611530272 A 0.4 0.4 0 1 1 185.86364388469727 -90.62928511458495" /></g>
<g stroke="rgb(0, 0, 0)"><path d="M 185.87071488541505 -69.38635611530272 A 0.4 0.4 0 1 1 185.86364388469727 -69.37928511458495" /></g>
<g stroke="rgb(0, 0, 0)"><path d="M 78.57212608250909 -129.5741970274307 A 0.4 0.4 0 1 1 78.56373937525294 -129.56875063684745" /></g>
<g stroke="rgb(0, 0, 0)"><path d="M 95.14831816505087 -123.49829784972651 A 0.4 0.4 0 1 1 95.14022799932572 -123.49242000080791" /></g>
<g stroke="rgb(0, 0, 0)"><path d="M 113.45243464751547 -118.79008745605506 A 0.4 0.4 0 1 1 113.44574331975426 -118.78265598311573" /></g>
<g stroke="rgb(0, 0, 0)"><path d="M 55.87071488541505 -35.13635611530273 A 0.4 0.4 0 1 1 55.86364388469727 -35.12928511458495" /></g>
<g stroke="rgb(0, 0, 0)"><path d="M 55.87071488541505 -154.13635611530273 A 0.4 0.4 0 1 1 55.86364388469727 -154.12928511458495" /></g>
<g stroke="rgb(0, 0, 0)"><path d="M 91.87071488541505 -65.98635611530273 A 0.4 0.4 0 1 1 91.86364388469728 -65.97928511458495" /></g>
<g stroke="rgb(0, 0, 0)"><path d="M 73.87071488541505 -65.98635611530273 A 0.4 0.4 0 1 1 74.15700969956342 -65.30006142457619" /></g>
<g stroke="rgb(0, 0, 0)"><path d="M 74.14286530064858 -65.3000636349803 A 0.4 0.4 0 0 1 73.86364388469728 -65.97928511458495" /></g>
<g stroke="rgb(0, 0, 0)"><path d="M 91.87071488541505 -99.38635611530272 A 0.4 0.4 0 1 1 91.86364388469728 -99.37928511458495" /></g>
<g stroke="rgb(0, 0, 0)"><path d="M 73.87071488541505 -99.38635611530272 A 0.4 0.4 0 1 1 73.86364388469728 -99.37928511458495" /></g>
<g stroke="rgb(0, 0, 0)"><path d="M 82.87071488541505 -82.68635611530273 A 0.4 0.4 0 1 1 82.86364388469728 -82.67928511458496" /></g>
<g stroke="rgb(0, 0, 0)"><path d="M 177.37071488541505 -66.19885611530272 A 0.4 0.4 0 1 1 177.36364388469727 -66.19178511458495" /></g>
<g stroke="rgb(0, 0, 0)"><path d="M 177.37071488541505 -85.32385611530272 A 0.4 0.4 0 1 1 177.36364388469727 -85.31678511458495" /></g>
<g stroke="rgb(0, 0, 0)"><path d="M 89.87071488541505 -63.58635611530273 A 0.4 0.4 0 1 1 89.86364388469728 -63.57928511458495" /></g>
<g stroke="rgb(0, 0, 0)"><path d="M 75.87071488541505 -63.58635611530273 A 0.4 0.4 0 1 1 75.86364388469728 -63.57928511458495" /></g>
<g stroke="rgb(0, 0, 0)"><path d="M 143.37071488541505 -73.63635611530272 A 0.4 0.4 0 1 1 143.36364388469727 -73.62928511458495" /></g>
<g stroke="rgb(0, 0, 0)"><path d="M 143.37071488541505 -54.58635611530273 A 0.4 0.4 0 1 1 143.36364388469727 -54.57928511458495" /></g>
<g stroke="rgb(0, 0, 0)"><path d="M 143.37071488541505 -92.68635611530273 A 0.4 0.4 0 1 1 143.36364388469727 -92.67928511458496" /></g>
<g stroke="rgb(0, 0, 0)"><path d="M 124.32071488541504 -73.63635611530272 A 0.4 0.4 0 1 1 124.31364388469727 -73.62928511458495" /></g>
<g stroke="rgb(0, 0, 0)"><path d="M 162.42071488541504 -73.63635611530272 A 0.4 0.4 0 1 1 162.41364388469725 -73.62928511458495" /></g>
<g stroke="rgb(0, 0, 0)"><circle cx="176.5" cy="-67.0625" r="1.1" /></g>
<g stroke="rgb(0, 0, 0)"><circle cx="176.5" cy="-86.1875" r="1.1" /></g>
<g stroke="rgb(0, 0, 0)"><circle cx="89" cy="-64.45" r="1.1" /></g>
<g stroke="rgb(0, 0, 0)"><circle cx="75" cy="-64.45" r="1.1" /></g>
<g stroke="rgb(0, 0, 0)"><circle cx="142.5" cy="-55.45" r="1.1" /></g>
<g stroke="rgb(0, 0, 0)"><circle cx="142.5" cy="-93.55" r="1.1" /></g>
<g stroke="rgb(0, 0, 0)"><circle cx="123.45" cy="-74.5" r="1.1" /></g>
<g stroke="rgb(0, 0, 0)"><circle cx="161.55" cy="-74.5" r="1.1" /></g>
<g stroke="rgb(0, 0, 0)"><path d="M93.1,-106.9L106.9,-106.9" /></g>
<g stroke="rgb(0, 0, 0)"><path d="M106.9,-106.9L106.9,-93.1" /></g>
<g stroke="rgb(0, 0, 0)"><path d="M106.9,-93.1L93.1,-93.1" /></g>
<g stroke="rgb(0, 0, 0)"><path d="M93.1,-93.1L93.1,-106.9" /></g>
<g stroke="rgb(0, 0, 0)"><path d="M93.1,-89.9L106.9,-89.9" /></g>
<g stroke="rgb(0, 0, 0)"><path d="M106.9,-89.9L106.9,-76.1" /></g>
<g stroke="rgb(0, 0, 0)"><path d="M106.9,-76.1L93.1,-76.1" /></g>
<g stroke="rgb(0, 0, 0)"><path d="M93.1,-76.1L93.1,-89.9" /></g>
<g stroke="rgb(0, 0, 0)"><path d="M93.1,-72.9L106.9,-72.9" /></g>
<g stroke="rgb(0, 0, 0)"><path d="M106.9,-72.9L106.9,-59.1" /></g>
<g stroke="rgb(0, 0, 0)"><path d="M106.9,-59.1L93.1,-59.1" /></g>
<g stroke="rgb(0, 0, 0)"><path d="M93.1,-59.1L93.1,-72.9" /></g>
<g stroke="rgb(0, 0, 0)"><path d="M110.1,-106.9L123.9,-106.9" /></g>
<g stroke="rgb(0, 0, 0)"><path d="M123.9,-106.9L123.9,-93.1" /></g>
<g stroke="rgb(0, 0, 0)"><path d="M123.9,-93.1L110.1,-93.1" /></g>
<g stroke="rgb(0, 0, 0)"><path d="M110.1,-93.1L110.1,-106.9" /></g>
<g stroke="rgb(0, 0, 0)"><path d="M110.1,-89.9L123.9,-89.9" /></g>
<g stroke="rgb(0, 0, 0)"><path d="M123.9,-89.9L123.9,-76.1" /></g>
<g stroke="rgb(0, 0, 0)"><path d="M123.9,-76.1L110.1,-76.1" /></g>
<g stroke="rgb(0, 0, 0)"><path d="M110.1,-76.1L110.1,-89.9" /></g>
<g stroke="rgb(0, 0, 0)"><path d="M110.1,-72.9L123.9,-72.9" /></g>
<g stroke="rgb(0, 0, 0)"><path d="M123.9,-72.9L123.9,-59.1" /></g>
<g stroke="rgb(0, 0, 0)"><path d="M123.9,-59.1L110.1,-59.1" /></g>
<g stroke="rgb(0, 0, 0)"><path d="M110.1,-59.1L110.1,-72.9" /></g>
<g stroke="rgb(0, 0, 0)"><path d="M127.1,-106.9L140.9,-106.9" /></g>
<g stroke="rgb(0, 0, 0)"><path d="M140.9,-106.9L140.9,-93.1" /></g>
<g stroke="rgb(0, 0, 0)"><path d="M140.9,-93.1L127.1,-93.1" /></g>
<g stroke="rgb(0, 0, 0)"><path d="M127.1,-93.1L127.1,-106.9" /></g>
<g stroke="rgb(0, 0, 0)"><path d="M127.1,-89.9L140.9,-89.9" /></g>
<g stroke="rgb(0, 0, 0)"><path d="M140.9,-89.9L140.9,-76.1" /></g>
<g stroke="rgb(0, 0, 0)"><path d="M140.9,-76.1L127.1,-76.1" /></g>
<g stroke="rgb(0, 0, 0)"><path d="M127.1,-76.1L127.1,-89.9" /></g>
<g stroke="rgb(0, 0, 0)"><path d="M127.1,-72.9L140.9,-72.9" /></g>
<g stroke="rgb(0, 0, 0)"><path d="M140.9,-72.9L140.9,-59.1" /></g>
<g stroke="rgb(0, 0, 0)"><path d="M140.9,-59.1L127.1,-59.1" /></g>
<g stroke="rgb(0, 0, 0)"><path d="M127.1,-59.1L127.1,-72.9" /></g>
<g stroke="rgb(0, 0, 0)"><path d="M144.1,-106.9L157.9,-106.9" /></g>
<g stroke="rgb(0, 0, 0)"><path d="M157.9,-106.9L157.9,-93.1" /></g>
<g stroke="rgb(0, 0, 0)"><path d="M157.9,-93.1L144.1,-93.1" /></g>
<g stroke="rgb(0, 0, 0)"><path d="M144.1,-93.1L144.1,-106.9" /></g>
<g stroke="rgb(0, 0, 0)"><path d="M144.1,-89.9L157.9,-89.9" /></g>
<g stroke="rgb(0, 0, 0)"><path d="M157.9,-89.9L157.9,-76.1" /></g>
<g stroke="rgb(0, 0, 0)"><path d="M157.9,-76.1L144.1,-76.1" /></g>
<g stroke="rgb(0, 0, 0)"><path d="M144.1,-76.1L144.1,-89.9" /></g>
<g stroke="rgb(0, 0, 0)"><path d="M144.1,-72.9L157.9,-72.9" /></g>
<g stroke="rgb(0, 0, 0)"><path d="M157.9,-72.9L157.9,-59.1" /></g>
<g stroke="rgb(0, 0, 0)"><path d="M157.9,-59.1L144.1,-59.1" /></g>
<g stroke="rgb(0, 0, 0)"><path d="M144.1,-59.1L144.1,-72.9" /></g>
<g stroke="rgb(0, 0, 0)"><path d="M161.1,-106.9L174.9,-106.9" /></g>
<g stroke="rgb(0, 0, 0)"><path d="M174.9,-106.9L174.9,-93.1" /></g>
<g stroke="rgb(0, 0, 0)"><path d="M174.9,-93.1L161.1,-93.1" /></g>
<g stroke="rgb(0, 0, 0)"><path d="M161.1,-93.1L161.1,-106.9" /></g>
<g stroke="rgb(0, 0, 0)"><path d="M161.1,-89.9L174.9,-89.9" /></g>
<g stroke="rgb(0, 0, 0)"><path d="M174.9,-89.9L174.9,-76.1" /></g>
<g stroke="rgb(0, 0, 0)"><path d="M174.9,-76.1L161.1,-76.1" /></g>
<g stroke="rgb(0, 0, 0)"><path d="M161.1,-76.1L161.1,-89.9" /></g>
<g stroke="rgb(0, 0, 0)"><path d="M161.1,-72.9L174.9,-72.9" /></g>
<g stroke="rgb(0, 0, 0)"><path d="M174.9,-72.9L174.9,-59.1" /></g>
<g stroke="rgb(0, 0, 0)"><path d="M174.9,-59.1L161.1,-59.1" /></g>
<g stroke="rgb(0, 0, 0)"><path d="M161.1,-59.1L161.1,-72.9" /></g>
<g stroke="rgb(0, 0, 0)"><path d="M178.1,-98.4L191.9,-98.4" /></g>
<g stroke="rgb(0, 0, 0)"><path d="M191.9,-98.4L191.9,-84.6" /></g>
<g stroke="rgb(0, 0, 0)"><path d="M191.9,-84.6L178.1,-84.6" /></g>
<g stroke="rgb(0, 0, 0)"><path d="M178.1,-84.6L178.1,-98.4" /></g>
<g stroke="rgb(0, 0, 0)"><path d="M178.1,-77.15L191.9,-77.15" /></g>
<g stroke="rgb(0, 0, 0)"><path d="M191.9,-77.15L191.9,-63.35" /></g>
<g stroke="rgb(0, 0, 0)"><path d="M191.9,-63.35L178.1,-63.35" /></g>
<g stroke="rgb(0, 0, 0)"><path d="M178.1,-63.35L178.1,-77.15" /></g>
<g stroke="rgb(0, 0, 0)"><path d="M72.5853722,-138.7838091L86.0838091,-135.9146278" /></g>
<g stroke="rgb(0, 0, 0)"><path d="M86.0838091,-135.9146278L83.2146278,-122.4161909" /></g>
<g stroke="rgb(0, 0, 0)"><path d="M83.2146278,-122.4161909L69.7161909,-125.2853722" /></g>
<g stroke="rgb(0, 0, 0)"><path d="M69.7161909,-125.2853722L72.5853722,-138.7838091" /></g>
<g stroke="rgb(0, 0, 0)"><path d="M88.6877751,-132.381966L102.3178742,-130.2231703" /></g>
<g stroke="rgb(0, 0, 0)"><path d="M102.3178742,-130.2231703L100.1590785,-116.5930712" /></g>
<g stroke="rgb(0, 0, 0)"><path d="M100.1590785,-116.5930712L86.5289794,-118.7518669" /></g>
<g stroke="rgb(0, 0, 0)"><path d="M86.5289794,-118.7518669L88.6877751,-132.381966" /></g>
<g stroke="rgb(0, 0, 0)"><path d="M105.2860515,-126.1364037L119.0671391,-126.8586399" /></g>
<g stroke="rgb(0, 0, 0)"><path d="M119.0671391,-126.8586399L119.7893753,-113.0775523" /></g>
<g stroke="rgb(0, 0, 0)"><path d="M119.7893753,-113.0775523L106.0082877,-112.3553161" /></g>
<g stroke="rgb(0, 0, 0)"><path d="M106.0082877,-112.3553161L105.2860515,-126.1364037" /></g>
<g stroke="rgb(0, 0, 0)"><circle cx="176.5" cy="-67.0625" r="1.7" /></g>
<g stroke="rgb(0, 0, 0)"><circle cx="176.5" cy="-86.1875" r="1.7" /></g>
<g stroke="rgb(0, 0, 0)"><path d="M74.75,-100.25L89.25,-100.25" /></g>
<g stroke="rgb(0, 0, 0)"><path d="M91,-98.5L91,-68.6" /></g>
<g stroke="rgb(0, 0, 0)"><path d="M89.25,-66.85L74.75,-66.85" /></g>
<g stroke="rgb(0, 0, 0)"><path d="M73,-68.6L73,-98.5" /></g>
<g stroke="rgb(0, 0, 0)"><path d="M 89.25 -100.25 A 1.75 1.75 0 0 1 91 -98.5" /></g>
<g stroke="rgb(0, 0, 0)"><path d="M 91 -68.6 A 1.75 1.75 0 0 1 89.25 -66.85" /></g>
<g stroke="rgb(0, 0, 0)"><path d="M 74.75 -66.85 A 1.75 1.75 0 0 1 73 -68.6" /></g>
<g stroke="rgb(0, 0, 0)"><path d="M 73 -98.5 A 1.75 1.75 0 0 1 74.75 -100.25" /></g>
<g stroke="rgb(0, 0, 0)"><circle cx="142.5" cy="-74.5" r="20.55" /></g>
  </g>
</svg>