<?xml version="1.0"?>
<svg
  xmlns="http://www.w3.org/2000/svg"
  xmlns:xlink="http://www.w3.org/1999/xlink" version="1.1"
  preserveAspectRatio="xMinYMin meet"
  viewBox="52.5 33.5 140.75 124"
  width="100%" height="100%"
>
  <g stroke="#000000" stroke-width="0.1%" fill="none" transform="matrix(1,0,0,-1,0,0)">
    <g stroke="rgb(0, 0, 0)"><path d="M52.5,-38.5L57.5,-38.5" /></g>
<g stroke="rgb(0, 0, 0)"><path d="M57.5,-38.5L57.5,-33.5" /></g>
<g stroke="rgb(0, 0, 0)"><path d="M57.5,-33.5L52.5,-33.5" /></g>
<g stroke="rgb(0, 0, 0)"><path d="M52.5,-33.5L52.5,-38.5" /></g>
<g stroke="rgb(0, 0, 0)"><path d="M52.5,-157.5L57.5,-157.5" /></g>
<g stroke="rgb(0, 0, 0)"><path d="M57.5,-157.5L57.5,-152.5" /></g>
<g stroke="rgb(0, 0, 0)"><path d="M57.5,-152.5L52.5,-152.5" /></g>
<g stroke="rgb(0, 0, 0)"><path d="M52.5,-152.5L52.5,-157.5" /></g>
<g stroke="rgb(0, 0, 0)"><circle cx="100" cy="-100" r="0.25" /></g>
<g stroke="rgb(0, 0, 0)"><circle cx="100" cy="-83" r="0.25" /></g>
<g stroke="rgb(0, 0, 0)"><circle cx="100" cy="-66" r="0.25" /></g>
<g stroke="rgb(0, 0, 0)"><circle cx="117" cy="-100" r="0.25" /></g>
<g stroke="rgb(0, 0, 0)"><circle cx="117" cy="-83" r="0.25" /></g>
<g stroke="rgb(0, 0, 0)"><circle cx="117" cy="-66" r="0.25" /></g>
<g stroke="rgb(0, 0, 0)"><circle cx="134" cy="-100" r="0.25" /></g>
<g stroke="rgb(0, 0, 0)"><circle cx="134" cy="-83" r="0.25" /></g>
<g stroke="rgb(0, 0, 0)"><circle cx="134" cy="-66" r="0.25" /></g>
<g stroke="rgb(0, 0, 0)"><circle cx="151" cy="-100" r="0.25" /></g>
<g stroke="rgb(0, 0, 0)"><circle cx="151" cy="-83" r="0.25" /></g>
<g stroke="rgb(0, 0, 0)"><circle cx="151" cy="-66" r="0.25" /></g>
<g stroke="rgb(0, 0, 0)"><circle cx="168" cy="-100" r="0.25" /></g>
<g stroke="rgb(0, 0, 0)"><circle cx="168" cy="-83" r="0.25" /></g>
<g stroke="rgb(0, 0, 0)"><circle cx="168" cy="-66" r="0.25" /></g>
<g stroke="rgb(0, 0, 0)"><circle cx="185" cy="-91.5" r="0.25" /></g>
<g stroke="rgb(0, 0, 0)"><circle cx="185" cy="-70.25" r="0.25" /></g>
<g stroke="rgb(0, 0, 0)"><circle cx="77.9" cy="-130.6" r="0.25" /></g>
<g stroke="rgb(0, 0, 0)"><circle cx="94.4234268" cy="-124.4875186" r="0.25" /></g>
<g stroke="rgb(0, 0, 0)"><circle cx="112.5377134" cy="-119.606978" r="0.25" /></g>
<g stroke="rgb(0, 0, 0)"><path d="M93.25,-108.25L106.75,-108.25" /></g>
<g stroke="rgb(0, 0, 0)"><path d="M 106.75 -108.25 A 1.5 1.5 0 0 1 108.25 -106.75" /></g>
<g stroke="rgb(0, 0, 0)"><path d="M108.25,-106.75L108.25,-93.25" /></g>
<g stroke="rgb(0, 0, 0)"><path d="M 108.25 -93.25 A 1.5 1.5 0 0 1 106.75 -91.75" /></g>
<g stroke="rgb(0, 0, 0)"><path d="M106.75,-91.75L93.25,-91.75" /></g>
<g stroke="rgb(0, 0, 0)"><path d="M 93.25 -91.75 A 1.5 1.5 0 0 1 91.75 -93.25" /></g>
<g stroke="rgb(0, 0, 0)"><path d="M91.75,-93.25L91.75,-106.75" /></g>
<g stroke="rgb(0, 0, 0)"><path d="M 91.75 -106.75 A 1.5 1.5 0 0 1 93.25 -108.25" /></g>
<g stroke="rgb(0, 0, 0)"><path d="M93.25,-91.25L106.75,-91.25" /></g>
<g stroke="rgb(0, 0, 0)"><path d="M 106.75 -91.25 A 1.5 1.5 0 0 1 108.25 -89.75" /></g>
<g stroke="rgb(0, 0, 0)"><path d="M108.25,-89.75L108.25,-76.25" /></g>
<g stroke="rgb(0, 0, 0)"><path d="M 108.25 -76.25 A 1.5 1.5 0 0 1 106.75 -74.75" /></g>
<g stroke="rgb(0, 0, 0)"><path d="M106.75,-74.75L93.25,-74.75" /></g>
<g stroke="rgb(0, 0, 0)"><path d="M 93.25 -74.75 A 1.5 1.5 0 0 1 91.75 -76.25" /></g>
<g stroke="rgb(0, 0, 0)"><path d="M91.75,-76.25L91.75,-89.75" /></g>
<g stroke="rgb(0, 0, 0)"><path d="M 91.75 -89.75 A 1.5 1.5 0 0 1 93.25 -91.25" /></g>
<g stroke="rgb(0, 0, 0)"><path d="M93.25,-74.25L106.75,-74.25" /></g>
<g stroke="rgb(0, 0, 0)"><path d="M 106.75 -74.25 A 1.5 1.5 0 0 1 108.25 -72.75" /></g>
<g stroke="rgb(0, 0, 0)"><path d="M108.25,-72.75L108.25,-59.25" /></g>
<g stroke="rgb(0, 0, 0)"><path d="M 108.25 -59.25 A 1.5 1.5 0 0 1 106.75 -57.75" /></g>
<g stroke="rgb(0, 0, 0)"><path d="M106.75,-57.75L93.25,-57.75" /></g>
<g stroke="rgb(0, 0, 0)"><path d="M 93.25 -57.75 A 1.5 1.5 0 0 1 91.75 -59.25" /></g>
<g stroke="rgb(0, 0, 0)"><path d="M91.75,-59.25L91.75,-72.75" /></g>
<g stroke="rgb(0, 0, 0)"><path d="M 91.75 -72.75 A 1.5 1.5 0 0 1 93.25 -74.25" /></g>
<g stroke="rgb(0, 0, 0)"><path d="M110.25,-108.25L123.75,-108.25" /></g>
<g stroke="rgb(0, 0, 0)"><path d="M 123.75 -108.25 A 1.5 1.5 0 0 1 125.25 -106.75" /></g>
<g stroke="rgb(0, 0, 0)"><path d="M125.25,-106.75L125.25,-93.25" /></g>
<g stroke="rgb(0, 0, 0)"><path d="M 125.25 -93.25 A 1.5 1.5 0 0 1 123.75 -91.75" /></g>
<g stroke="rgb(0, 0, 0)"><path d="M123.75,-91.75L110.25,-91.75" /></g>
<g stroke="rgb(0, 0, 0)"><path d="M 110.25 -91.75 A 1.5 1.5 0 0 1 108.75 -93.25" /></g>
<g stroke="rgb(0, 0, 0)"><path d="M108.75,-93.25L108.75,-106.75" /></g>
<g stroke="rgb(0, 0, 0)"><path d="M 108.75 -106.75 A 1.5 1.5 0 0 1 110.25 -108.25" /></g>
<g stroke="rgb(0, 0, 0)"><path d="M110.25,-91.25L123.75,-91.25" /></g>
<g stroke="rgb(0, 0, 0)"><path d="M 123.75 -91.25 A 1.5 1.5 0 0 1 125.25 -89.75" /></g>
<g stroke="rgb(0, 0, 0)"><path d="M125.25,-89.75L125.25,-76.25" /></g>
<g stroke="rgb(0, 0, 0)"><path d="M 125.25 -76.25 A 1.5 1.5 0 0 1 123.75 -74.75" /></g>
<g stroke="rgb(0, 0, 0)"><path d="M123.75,-74.75L110.25,-74.75" /></g>
<g stroke="rgb(0, 0, 0)"><path d="M 110.25 -74.75 A 1.5 1.5 0 0 1 108.75 -76.25" /></g>
<g stroke="rgb(0, 0, 0)"><path d="M108.75,-76.25L108.75,-89.75" /></g>
<g stroke="rgb(0, 0, 0)"><path d="M 108.75 -89.75 A 1.5 1.5 0 0 1 110.25 -91.25" /></g>
<g stroke="rgb(0, 0, 0)"><path d="M110.25,-74.25L123.75,-74.25" /></g>
<g stroke="rgb(0, 0, 0)"><path d="M 123.75 -74.25 A 1.5 1.5 0 0 1 125.25 -72.75" /></g>
<g stroke="rgb(0, 0, 0)"><path d="M125.25,-72.75L125.25,-59.25" /></g>
<g stroke="rgb(0, 0, 0)"><path d="M 125.25 -59.25 A 1.5 1.5 0 0 1 123.75 -57.75" /></g>
<g stroke="rgb(0, 0, 0)"><path d="M123.75,-57.75L110.25,-57.75" /></g>
<g stroke="rgb(0, 0, 0)"><path d="M 110.25 -57.75 A 1.5 1.5 0 0 1 108.75 -59.25" /></g>
<g stroke="rgb(0, 0, 0)"><path d="M108.75,-59.25L108.75,-72.75" /></g>
<g stroke="rgb(0, 0, 0)"><path d="M 108.75 -72.75 A 1.5 1.5 0 0 1 110.25 -74.25" /></g>
<g stroke="rgb(0, 0, 0)"><path d="M127.25,-108.25L140.75,-108.25" /></g>
<g stroke="rgb(0, 0, 0)"><path d="M 140.75 -108.25 A 1.5 1.5 0 0 1 142.25 -106.75" /></g>
<g stroke="rgb(0, 0, 0)"><path d="M142.25,-106.75L142.25,-93.25" /></g>
<g stroke="rgb(0, 0, 0)"><path d="M 142.25 -93.25 A 1.5 1.5 0 0 1 140.75 -91.75" /></g>
<g stroke="rgb(0, 0, 0)"><path d="M140.75,-91.75L127.25,-91.75" /></g>
<g stroke="rgb(0, 0, 0)"><path d="M 127.25 -91.75 A 1.5 1.5 0 0 1 125.75 -93.25" /></g>
<g stroke="rgb(0, 0, 0)"><path d="M125.75,-93.25L125.75,-106.75" /></g>
<g stroke="rgb(0, 0, 0)"><path d="M 125.75 -106.75 A 1.5 1.5 0 0 1 127.25 -108.25" /></g>
<g stroke="rgb(0, 0, 0)"><path d="M127.25,-91.25L140.75,-91.25" /></g>
<g stroke="rgb(0, 0, 0)"><path d="M 140.75 -91.25 A 1.5 1.5 0 0 1 142.25 -89.75" /></g>
<g stroke="rgb(0, 0, 0)"><path d="M142.25,-89.75L142.25,-76.25" /></g>
<g stroke="rgb(0, 0, 0)"><path d="M 142.25 -76.25 A 1.5 1.5 0 0 1 140.75 -74.75" /></g>
<g stroke="rgb(0, 0, 0)"><path d="M140.75,-74.75L127.25,-74.75" /></g>
<g stroke="rgb(0, 0, 0)"><path d="M 127.25 -74.75 A 1.5 1.5 0 0 1 125.75 -76.25" /></g>
<g stroke="rgb(0, 0, 0)"><path d="M125.75,-76.25L125.75,-89.75" /></g>
<g stroke="rgb(0, 0, 0)"><path d="M 125.75 -89.75 A 1.5 1.5 0 0 1 127.25 -91.25" /></g>
<g stroke="rgb(0, 0, 0)"><path d="M127.25,-74.25L140.75,-74.25" /></g>
<g stroke="rgb(0, 0, 0)"><path d="M 140.75 -74.25 A 1.5 1.5 0 0 1 142.25 -72.75" /></g>
<g stroke="rgb(0, 0, 0)"><path d="M142.25,-72.75L142.25,-59.25" /></g>
<g stroke="rgb(0, 0, 0)"><path d="M 142.25 -59.25 A 1.5 1.5 0 0 1 140.75 -57.75" /></g>
<g stroke="rgb(0, 0, 0)"><path d="M140.75,-57.75L127.25,-57.75" /></g>
<g stroke="rgb(0, 0, 0)"><path d="M 127.25 -57.75 A 1.5 1.5 0 0 1 125.75 -59.25" /></g>
<g stroke="rgb(0, 0, 0)"><path d="M125.75,-59.25L125.75,-72.75" /></g>
<g stroke="rgb(0, 0, 0)"><path d="M 125.75 -72.75 A 1.5 1.5 0 0 1 127.25 -74.25" /></g>
<g stroke="rgb(0, 0, 0)"><path d="M144.25,-108.25L157.75,-108.25" /></g>
<g stroke="rgb(0, 0, 0)"><path d="M 157.75 -108.25 A 1.5 1.5 0 0 1 159.25 -106.75" /></g>
<g stroke="rgb(0, 0, 0)"><path d="M159.25,-106.75L159.25,-93.25" /></g>
<g stroke="rgb(0, 0, 0)"><path d="M 159.25 -93.25 A 1.5 1.5 0 0 1 157.75 -91.75" /></g>
<g stroke="rgb(0, 0, 0)"><path d="M157.75,-91.75L144.25,-91.75" /></g>
<g stroke="rgb(0, 0, 0)"><path d="M 144.25 -91.75 A 1.5 1.5 0 0 1 142.75 -93.25" /></g>
<g stroke="rgb(0, 0, 0)"><path d="M142.75,-93.25L142.75,-106.75" /></g>
<g stroke="rgb(0, 0, 0)"><path d="M 142.75 -106.75 A 1.5 1.5 0 0 1 144.25 -108.25" /></g>
<g stroke="rgb(0, 0, 0)"><path d="M144.25,-91.25L157.75,-91.25" /></g>
<g stroke="rgb(0, 0, 0)"><path d="M 157.75 -91.25 A 1.5 1.5 0 0 1 159.25 -89.75" /></g>
<g stroke="rgb(0, 0, 0)"><path d="M159.25,-89.75L159.25,-76.25" /></g>
<g stroke="rgb(0, 0, 0)"><path d="M 159.25 -76.25 A 1.5 1.5 0 0 1 157.75 -74.75" /></g>
<g stroke="rgb(0, 0, 0)"><path d="M157.75,-74.75L144.25,-74.75" /></g>
<g stroke="rgb(0, 0, 0)"><path d="M 144.25 -74.75 A 1.5 1.5 0 0 1 142.75 -76.25" /></g>
<g stroke="rgb(0, 0, 0)"><path d="M142.75,-76.25L142.75,-89.75" /></g>
<g stroke="rgb(0, 0, 0)"><path d="M 142.75 -89.75 A 1.5 1.5 0 0 1 144.25 -91.25" /></g>
<g stroke="rgb(0, 0, 0)"><path d="M144.25,-74.25L157.75,-74.25" /></g>
<g stroke="rgb(0, 0, 0)"><path d="M 157.75 -74.25 A 1.5 1.5 0 0 1 159.25 -72.75" /></g>
<g stroke="rgb(0, 0, 0)"><path d="M159.25,-72.75L159.25,-59.25" /></g>
<g stroke="rgb(0, 0, 0)"><path d="M 159.25 -59.25 A 1.5 1.5 0 0 1 157.75 -57.75" /></g>
<g stroke="rgb(0, 0, 0)"><path d="M157.75,-57.75L144.25,-57.75" /></g>
<g stroke="rgb(0, 0, 0)"><path d="M 144.25 -57.75 A 1.5 1.5 0 0 1 142.75 -59.25" /></g>
<g stroke="rgb(0, 0, 0)"><path d="M142.75,-59.25L142.75,-72.75" /></g>
<g stroke="rgb(0, 0, 0)"><path d="M 142.75 -72.75 A 1.5 1.5 0 0 1 144.25 -74.25" /></g>
<g stroke="rgb(0, 0, 0)"><path d="M161.25,-108.25L174.75,-108.25" /></g>
<g stroke="rgb(0, 0, 0)"><path d="M 174.75 -108.25 A 1.5 1.5 0 0 1 176.25 -106.75" /></g>
<g stroke="rgb(0, 0, 0)"><path d="M176.25,-106.75L176.25,-93.25" /></g>
<g stroke="rgb(0, 0, 0)"><path d="M 176.25 -93.25 A 1.5 1.5 0 0 1 174.75 -91.75" /></g>
<g stroke="rgb(0, 0, 0)"><path d="M174.75,-91.75L161.25,-91.75" /></g>
<g stroke="rgb(0, 0, 0)"><path d="M 161.25 -91.75 A 1.5 1.5 0 0 1 159.75 -93.25" /></g>
<g stroke="rgb(0, 0, 0)"><path d="M159.75,-93.25L159.75,-106.75" /></g>
<g stroke="rgb(0, 0, 0)"><path d="M 159.75 -106.75 A 1.5 1.5 0 0 1 161.25 -108.25" /></g>
<g stroke="rgb(0, 0, 0)"><path d="M161.25,-91.25L174.75,-91.25" /></g>
<g stroke="rgb(0, 0, 0)"><path d="M 174.75 -91.25 A 1.5 1.5 0 0 1 176.25 -89.75" /></g>
<g stroke="rgb(0, 0, 0)"><path d="M176.25,-89.75L176.25,-76.25" /></g>
<g stroke="rgb(0, 0, 0)"><path d="M 176.25 -76.25 A 1.5 1.5 0 0 1 174.75 -74.75" /></g>
<g stroke="rgb(0, 0, 0)"><path d="M174.75,-74.75L161.25,-74.75" /></g>
<g stroke="rgb(0, 0, 0)"><path d="M 161.25 -74.75 A 1.5 1.5 0 0 1 159.75 -76.25" /></g>
<g stroke="rgb(0, 0, 0)"><path d="M159.75,-76.25L159.75,-89.75" /></g>
<g stroke="rgb(0, 0, 0)"><path d="M 159.75 -89.75 A 1.5 1.5 0 0 1 161.25 -91.25" /></g>
<g stroke="rgb(0, 0, 0)"><path d="M161.25,-74.25L174.75,-74.25" /></g>
<g stroke="rgb(0, 0, 0)"><path d="M 174.75 -74.25 A 1.5 1.5 0 0 1 176.25 -72.75" /></g>
<g stroke="rgb(0, 0, 0)"><path d="M176.25,-72.75L176.25,-59.25" /></g>
<g stroke="rgb(0, 0, 0)"><path d="M 176.25 -59.25 A 1.5 1.5 0 0 1 174.75 -57.75" /></g>
<g stroke="rgb(0, 0, 0)"><path d="M174.75,-57.75L161.25,-57.75" /></g>
<g stroke="rgb(0, 0, 0)"><path d="M 161.25 -57.75 A 1.5 1.5 0 0 1 159.75 -59.25" /></g>
<g stroke="rgb(0, 0, 0)"><path d="M159.75,-59.25L159.75,-72.75" /></g>
<g stroke="rgb(0, 0, 0)"><path d="M 159.75 -72.75 A 1.5 1.5 0 0 1 161.25 -74.25" /></g>
<g stroke="rgb(0, 0, 0)"><path d="M94,-107L106,-107" /></g>
<g stroke="rgb(0, 0, 0)"><path d="M 106 -107 A 1 1 0 0 1 107 -106" /></g>
<g stroke="rgb(0, 0, 0)"><path d="M107,-106L107,-94" /></g>
<g stroke="rgb(0, 0, 0)"><path d="M 107 -94 A 1 1 0 0 1 106 -93" /></g>
<g stroke="rgb(0, 0, 0)"><path d="M106,-93L94,-93" /></g>
<g stroke="rgb(0, 0, 0)"><path d="M 94 -93 A 1 1 0 0 1 93 -94" /></g>
<g stroke="rgb(0, 0, 0)"><path d="M93,-94L93,-106" /></g>
<g stroke="rgb(0, 0, 0)"><path d="M 93 -106 A 1 1 0 0 1 94 -107" /></g>
<g stroke="rgb(0, 0, 0)"><path d="M94,-90L106,-90" /></g>
<g stroke="rgb(0, 0, 0)"><path d="M 106 -90 A 1 1 0 0 1 107 -89" /></g>
<g stroke="rgb(0, 0, 0)"><path d="M107,-89L107,-77" /></g>
<g stroke="rgb(0, 0, 0)"><path d="M 107 -77 A 1 1 0 0 1 106 -76" /></g>
<g stroke="rgb(0, 0, 0)"><path d="M106,-76L94,-76" /></g>
<g stroke="rgb(0, 0, 0)"><path d="M 94 -76 A 1 1 0 0 1 93 -77" /></g>
<g stroke="rgb(0, 0, 0)"><path d="M93,-77L93,-89" /></g>
<g stroke="rgb(0, 0, 0)"><path d="M 93 -89 A 1 1 0 0 1 94 -90" /></g>
<g stroke="rgb(0, 0, 0)"><path d="M94,-73L106,-73" /></g>
<g stroke="rgb(0, 0, 0)"><path d="M 106 -73 A 1 1 0 0 1 107 -72" /></g>
<g stroke="rgb(0, 0, 0)"><path d="M107,-72L107,-60" /></g>
<g stroke="rgb(0, 0, 0)"><path d="M 107 -60 A 1 1 0 0 1 106 -59" /></g>
<g stroke="rgb(0, 0, 0)"><path d="M106,-59L94,-59" /></g>
<g stroke="rgb(0, 0, 0)"><path d="M 94 -59 A 1 1 0 0 1 93 -60" /></g>
<g stroke="rgb(0, 0, 0)"><path d="M93,-60L93,-72" /></g>
<g stroke="rgb(0, 0, 0)"><path d="M 93 -72 A 1 1 0 0 1 94 -73" /></g>
<g stroke="rgb(0, 0, 0)"><path d="M111,-107L123,-107" /></g>
<g stroke="rgb(0, 0, 0)"><path d="M 123 -107 A 1 1 0 0 1 124 -106" /></g>
<g stroke="rgb(0, 0, 0)"><path d="M124,-106L124,-94" /></g>
<g stroke="rgb(0, 0, 0)"><path d="M 124 -94 A 1 1 0 0 1 123 -93" /></g>
<g stroke="rgb(0, 0, 0)"><path d="M123,-93L111,-93" /></g>
<g stroke="rgb(0, 0, 0)"><path d="M 111 -93 A 1 1 0 0 1 110 -94" /></g>
<g stroke="rgb(0, 0, 0)"><path d="M110,-94L110,-106" /></g>
<g stroke="rgb(0, 0, 0)"><path d="M 110 -106 A 1 1 0 0 1 111 -107" /></g>
<g stroke="rgb(0, 0, 0)"><path d="M111,-90L123,-90" /></g>
<g stroke="rgb(0, 0, 0)"><path d="M 123 -90 A 1 1 0 0 1 124 -89" /></g>
<g stroke="rgb(0, 0, 0)"><path d="M124,-89L124,-77" /></g>
<g stroke="rgb(0, 0, 0)"><path d="M 124 -77 A 1 1 0 0 1 123 -76" /></g>
<g stroke="rgb(0, 0, 0)"><path d="M123,-76L111,-76" /></g>
<g stroke="rgb(0, 0, 0)"><path d="M 111 -76 A 1 1 0 0 1 110 -77" /></g>
<g stroke="rgb(0, 0, 0)"><path d="M110,-77L110,-89" /></g>
<g stroke="rgb(0, 0, 0)"><path d="M 110 -89 A 1 1 0 0 1 111 -90" /></g>
<g stroke="rgb(0, 0, 0)"><path d="M111,-73L123,-73" /></g>
<g stroke="rgb(0, 0, 0)"><path d="M 123 -73 A 1 1 0 0 1 124 -72" /></g>
<g stroke="rgb(0, 0, 0)"><path d="M124,-72L124,-60" /></g>
<g stroke="rgb(0, 0, 0)"><path d="M 124 -60 A 1 1 0 0 1 123 -59" /></g>
<g stroke="rgb(0, 0, 0)"><path d="M123,-59L111,-59" /></g>
<g stroke="rgb(0, 0, 0)"><path d="M 111 -59 A 1 1 0 0 1 110 -60" /></g>
<g stroke="rgb(0, 0, 0)"><path d="M110,-60L110,-72" /></g>
<g stroke="rgb(0, 0, 0)"><path d="M 110 -72 A 1 1 0 0 1 111 -73" /></g>
<g stroke="rgb(0, 0, 0)"><path d="M128,-107L140,-107" /></g>
<g stroke="rgb(0, 0, 0)"><path d="M 140 -107 A 1 1 0 0 1 141 -106" /></g>
<g stroke="rgb(0, 0, 0)"><path d="M141,-106L141,-94" /></g>
<g stroke="rgb(0, 0, 0)"><path d="M 141 -94 A 1 1 0 0 1 140 -93" /></g>
<g stroke="rgb(0, 0, 0)"><path d="M140,-93L128,-93" /></g>
<g stroke="rgb(0, 0, 0)"><path d="M 128 -93 A 1 1 0 0 1 127 -94" /></g>
<g stroke="rgb(0, 0, 0)"><path d="M127,-94L127,-106" /></g>
<g stroke="rgb(0, 0, 0)"><path d="M 127 -106 A 1 1 0 0 1 128 -107" /></g>
<g stroke="rgb(0, 0, 0)"><path d="M128,-90L140,-90" /></g>
<g stroke="rgb(0, 0, 0)"><path d="M 140 -90 A 1 1 0 0 1 141 -89" /></g>
<g stroke="rgb(0, 0, 0)"><path d="M141,-89L141,-77" /></g>
<g stroke="rgb(0, 0, 0)"><path d="M 141 -77 A 1 1 0 0 1 140 -76" /></g>
<g stroke="rgb(0, 0, 0)"><path d="M140,-76L128,-76" /></g>
<g stroke="rgb(0, 0, 0)"><path d="M 128 -76 A 1 1 0 0 1 127 -77" /></g>
<g stroke="rgb(0, 0, 0)"><path d="M127,-77L127,-89" /></g>
<g stroke="rgb(0, 0, 0)"><path d="M 127 -89 A 1 1 0 0 1 128 -90" /></g>
<g stroke="rgb(0, 0, 0)"><path d="M128,-73L140,-73" /></g>
<g stroke="rgb(0, 0, 0)"><path d="M 140 -73 A 1 1 0 0 1 141 -72" /></g>
<g stroke="rgb(0, 0, 0)"><path d="M141,-72L141,-60" /></g>
<g stroke="rgb(0, 0, 0)"><path d="M 141 -60 A 1 1 0 0 1 140 -59" /></g>
<g stroke="rgb(0, 0, 0)"><path d="M140,-59L128,-59" /></g>
<g stroke="rgb(0, 0, 0)"><path d="M 128 -59 A 1 1 0 0 1 127 -60" /></g>
<g stroke="rgb(0, 0, 0)"><path d="M127,-60L127,-72" /></g>
<g stroke="rgb(0, 0, 0)"><path d="M 127 -72 A 1 1 0 0 1 128 -73" /></g>
<g stroke="rgb(0, 0, 0)"><path d="M145,-107L157,-107" /></g>
<g stroke="rgb(0, 0, 0)"><path d="M 157 -107 A 1 1 0 0 1 158 -106" /></g>
<g stroke="rgb(0, 0, 0)"><path d="M158,-106L158,-94" /></g>
<g stroke="rgb(0, 0, 0)"><path d="M 158 -94 A 1 1 0 0 1 157 -93" /></g>
<g stroke="rgb(0, 0, 0)"><path d="M157,-93L145,-93" /></g>
<g stroke="rgb(0, 0, 0)"><path d="M 145 -93 A 1 1 0 0 1 144 -94" /></g>
<g stroke="rgb(0, 0, 0)"><path d="M144,-94L144,-106" /></g>
<g stroke="rgb(0, 0, 0)"><path d="M 144 -106 A 1 1 0 0 1 145 -107" /></g>
<g stroke="rgb(0, 0, 0)"><path d="M145,-90L157,-90" /></g>
<g stroke="rgb(0, 0, 0)"><path d="M 157 -90 A 1 1 0 0 1 158 -89" /></g>
<g stroke="rgb(0, 0, 0)"><path d="M158,-89L158,-77" /></g>
<g stroke="rgb(0, 0, 0)"><path d="M 158 -77 A 1 1 0 0 1 157 -76" /></g>
<g stroke="rgb(0, 0, 0)"><path d="M157,-76L145,-76" /></g>
<g stroke="rgb(0, 0, 0)"><path d="M 145 -76 A 1 1 0 0 1 144 -77" /></g>
<g stroke="rgb(0, 0, 0)"><path d="M144,-77L144,-89" /></g>
<g stroke="rgb(0, 0, 0)"><path d="M 144 -89 A 1 1 0 0 1 145 -90" /></g>
<g stroke="rgb(0, 0, 0)"><path d="M145,-73L157,-73" /></g>
<g stroke="rgb(0, 0, 0)"><path d="M 157 -73 A 1 1 0 0 1 158 -72" /></g>
<g stroke="rgb(0, 0, 0)"><path d="M158,-72L158,-60" /></g>
<g stroke="rgb(0, 0, 0)"><path d="M 158 -60 A 1 1 0 0 1 157 -59" /></g>
<g stroke="rgb(0, 0, 0)"><path d="M157,-59L145,-59" /></g>
<g stroke="rgb(0, 0, 0)"><path d="M 145 -59 A 1 1 0 0 1 144 -60" /></g>
<g stroke="rgb(0, 0, 0)"><path d="M144,-60L144,-72" /></g>
<g stroke="rgb(0, 0, 0)"><path d="M 144 -72 A 1 1 0 0 1 145 -73" /></g>
<g stroke="rgb(0, 0, 0)"><path d="M162,-107L174,-107" /></g>
<g stroke="rgb(0, 0, 0)"><path d="M 174 -107 A 1 1 0 0 1 175 -106" /></g>
<g stroke="rgb(0, 0, 0)"><path d="M175,-106L175,-94" /></g>
<g stroke="rgb(0, 0, 0)"><path d="M 175 -94 A 1 1 0 0 1 174 -93" /></g>
<g stroke="rgb(0, 0, 0)"><path d="M174,-93L162,-93" /></g>
<g stroke="rgb(0, 0, 0)"><path d="M 162 -93 A 1 1 0 0 1 161 -94" /></g>
<g stroke="rgb(0, 0, 0)"><path d="M161,-94L161,-106" /></g>
<g stroke="rgb(0, 0, 0)"><path d="M 161 -106 A 1 1 0 0 1 162 -107" /></g>
<g stroke="rgb(0, 0, 0)"><path d="M162,-90L174,-90" /></g>
<g stroke="rgb(0, 0, 0)"><path d="M 174 -90 A 1 1 0 0 1 175 -89" /></g>
<g stroke="rgb(0, 0, 0)"><path d="M175,-89L175,-77" /></g>
<g stroke="rgb(0, 0, 0)"><path d="M 175 -77 A 1 1 0 0 1 174 -76" /></g>
<g stroke="rgb(0, 0, 0)"><path d="M174,-76L162,-76" /></g>
<g stroke="rgb(0, 0, 0)"><path d="M 162 -76 A 1 1 0 0 1 161 -77" /></g>
<g stroke="rgb(0, 0, 0)"><path d="M161,-77L161,-89" /></g>
<g stroke="rgb(0, 0, 0)"><path d="M 161 -89 A 1 1 0 0 1 162 -90" /></g>
<g stroke="rgb(0, 0, 0)"><path d="M162,-73L174,-73" /></g>
<g stroke="rgb(0, 0, 0)"><path d="M 174 -73 A 1 1 0 0 1 175 -72" /></g>
<g stroke="rgb(0, 0, 0)"><path d="M175,-72L175,-60" /></g>
<g stroke="rgb(0, 0, 0)"><path d="M 175 -60 A 1 1 0 0 1 174 -59" /></g>
<g stroke="rgb(0, 0, 0)"><path d="M174,-59L162,-59" /></g>
<g stroke="rgb(0, 0, 0)"><path d="M 162 -59 A 1 1 0 0 1 161 -60" /></g>
<g stroke="rgb(0, 0, 0)"><path d="M161,-60L161,-72" /></g>
<g stroke="rgb(0, 0, 0)"><path d="M 161 -72 A 1 1 0 0 1 162 -73" /></g>
<g stroke="rgb(0, 0, 0)"><path d="M178.25,-101.8125L191.75,-101.8125" /></g>
<g stroke="rgb(0, 0, 0)"><path d="M 191.75 -101.8125 A 1.5 1.5 0 0 1 193.25 -100.3125" /></g>
<g stroke="rgb(0, 0, 0)"><path d="M193.25,-100.3125L193.25,-82.6875" /></g>
<g stroke="rgb(0, 0, 0)"><path d="M 193.25 -82.6875 A 1.5 1.5 0 0 1 191.75 -81.1875" /></g>
<g stroke="rgb(0, 0, 0)"><path d="M191.75,-81.1875L178.25,-81.1875" /></g>
<g stroke="rgb(0, 0, 0)"><path d="M 178.25 -81.1875 A 1.5 1.5 0 0 1 176.75 -82.6875" /></g>
<g stroke="rgb(0, 0, 0)"><path d="M176.75,-82.6875L176.75,-100.3125" /></g>
<g stroke="rgb(0, 0, 0)"><path d="M 176.75 -100.3125 A 1.5 1.5 0 0 1 178.25 -101.8125" /></g>
<g stroke="rgb(0, 0, 0)"><path d="M178.25,-80.5625L191.75,-80.5625" /></g>
<g stroke="rgb(0, 0, 0)"><path d="M 191.75 -80.5625 A 1.5 1.5 0 0 1 193.25 -79.0625" /></g>
<g stroke="rgb(0, 0, 0)"><path d="M193.25,-79.0625L193.25,-61.4375" /></g>
<g stroke="rgb(0, 0, 0)"><path d="M 193.25 -61.4375 A 1.5 1.5 0 0 1 191.75 -59.9375" /></g>
<g stroke="rgb(0, 0, 0)"><path d="M191.75,-59.9375L178.25,-59.9375" /></g>
<g stroke="rgb(0, 0, 0)"><path d="M 178.25 -59.9375 A 1.5 1.5 0 0 1 176.75 -61.4375" /></g>
<g stroke="rgb(0, 0, 0)"><path d="M176.75,-61.4375L176.75,-79.0625" /></g>
<g stroke="rgb(0, 0, 0)"><path d="M 176.75 -79.0625 A 1.5 1.5 0 0 1 178.25 -80.5625" /></g>
<g stroke="rgb(0, 0, 0)"><path d="M73.441593,-142.090551L86.6465856,-139.2837432" /></g>
<g stroke="rgb(0, 0, 0)"><path d="M 86.64658563622665 -139.28374320110072 A 1.5 1.5 0 0 1 87.80193950110072 -137.50465426377338" /></g>
<g stroke="rgb(0, 0, 0)"><path d="M87.8019395,-137.5046543L84.1374959,-120.2648028" /></g>
<g stroke="rgb(0, 0, 0)"><path d="M 84.13749590110072 -120.26480286377335 A 1.5 1.5 0 0 1 82.35840696377336 -119.1094489988993" /></g>
<g stroke="rgb(0, 0, 0)"><path d="M82.358407,-119.109449L69.1534144,-121.9162568" /></g>
<g stroke="rgb(0, 0, 0)"><path d="M 69.15341436377335 -121.9162567988993 A 1.5 1.5 0 0 1 67.99806049889929 -123.69534573622664" /></g>
<g stroke="rgb(0, 0, 0)"><path d="M67.9980605,-123.6953457L71.6625041,-140.9351972" /></g>
<g stroke="rgb(0, 0, 0)"><path d="M 71.66250409889929 -140.93519713622663 A 1.5 1.5 0 0 1 73.44159303622665 -142.09055100110072" /></g>
<g stroke="rgb(0, 0, 0)"><path d="M89.3697609,-135.7289873L102.7035535,-133.617122" /></g>
<g stroke="rgb(0, 0, 0)"><path d="M 102.70355349756035 -133.61712201089273 A 1.5 1.5 0 0 1 103.9504343108927 -131.90093780243967" /></g>
<g stroke="rgb(0, 0, 0)"><path d="M103.9504343,-131.9009378L101.1932769,-114.4929308" /></g>
<g stroke="rgb(0, 0, 0)"><path d="M 101.1932769108927 -114.49293080243964 A 1.5 1.5 0 0 1 99.47709270243965 -113.24604998910729" /></g>
<g stroke="rgb(0, 0, 0)"><path d="M99.4770927,-113.2460499L86.1433001,-115.3579152" /></g>
<g stroke="rgb(0, 0, 0)"><path d="M 86.14330010243965 -115.35791518910729 A 1.5 1.5 0 0 1 84.8964192891073 -117.07409939756035" /></g>
<g stroke="rgb(0, 0, 0)"><path d="M84.8964193,-117.0740994L87.6535767,-134.4821064" /></g>
<g stroke="rgb(0, 0, 0)"><path d="M 87.6535766891073 -134.48210639756033 A 1.5 1.5 0 0 1 89.36976089756035 -135.7289872108927" /></g>
<g stroke="rgb(0, 0, 0)"><path d="M105.2572495,-129.5520774L118.7387482,-130.2586128" /></g>
<g stroke="rgb(0, 0, 0)"><path d="M 118.73874816563558 -130.25861280213186 A 1.5 1.5 0 0 1 120.31519640213186 -128.83917243436443" /></g>
<g stroke="rgb(0, 0, 0)"><path d="M120.3151964,-128.8391724L121.2376177,-111.2383269" /></g>
<g stroke="rgb(0, 0, 0)"><path d="M 121.23761770213186 -111.23832683436441 A 1.5 1.5 0 0 1 119.81817733436442 -109.66187859786814" /></g>
<g stroke="rgb(0, 0, 0)"><path d="M119.8181773,-109.6618786L106.3366786,-108.9553432" /></g>
<g stroke="rgb(0, 0, 0)"><path d="M 106.33667863436442 -108.95534319786815 A 1.5 1.5 0 0 1 104.76023039786814 -110.37478356563558" /></g>
<g stroke="rgb(0, 0, 0)"><path d="M104.7602304,-110.3747836L103.8378091,-127.9756291" /></g>
<g stroke="rgb(0, 0, 0)"><path d="M 103.83780909786815 -127.97562916563558 A 1.5 1.5 0 0 1 105.25724946563558 -129.55207740213186" /></g>
<g stroke="rgb(0, 0, 0)"><path d="M179,-100.5625L191,-100.5625" /></g>
<g stroke="rgb(0, 0, 0)"><path d="M 191 -100.5625 A 1 1 0 0 1 192 -99.5625" /></g>
<g stroke="rgb(0, 0, 0)"><path d="M192,-99.5625L192,-83.4375" /></g>
<g stroke="rgb(0, 0, 0)"><path d="M 192 -83.4375 A 1 1 0 0 1 191 -82.4375" /></g>
<g stroke="rgb(0, 0, 0)"><path d="M191,-82.4375L179,-82.4375" /></g>
<g stroke="rgb(0, 0, 0)"><path d="M 179 -82.4375 A 1 1 0 0 1 178 -83.4375" /></g>
<g stroke="rgb(0, 0, 0)"><path d="M178,-83.4375L178,-99.5625" /></g>
<g stroke="rgb(0, 0, 0)"><path d="M 178 -99.5625 A 1 1 0 0 1 179 -100.5625" /></g>
<g stroke="rgb(0, 0, 0)"><path d="M179,-79.3125L191,-79.3125" /></g>
<g stroke="rgb(0, 0, 0)"><path d="M 191 -79.3125 A 1 1 0 0 1 192 -78.3125" /></g>
<g stroke="rgb(0, 0, 0)"><path d="M192,-78.3125L192,-62.1875" /></g>
<g stroke="rgb(0, 0, 0)"><path d="M 192 -62.1875 A 1 1 0 0 1 191 -61.1875" /></g>
<g stroke="rgb(0, 0, 0)"><path d="M191,-61.1875L179,-61.1875" /></g>
<g stroke="rgb(0, 0, 0)"><path d="M 179 -61.1875 A 1 1 0 0 1 178 -62.1875" /></g>
<g stroke="rgb(0, 0, 0)"><path d="M178,-62.1875L178,-78.3125" /></g>
<g stroke="rgb(0, 0, 0)"><path d="M 178 -78.3125 A 1 1 0 0 1 179 -79.3125" /></g>
<g stroke="rgb(0, 0, 0)"><path d="M73.9153141,-140.7119328L85.6530853,-138.2169925" /></g>
<g stroke="rgb(0, 0, 0)"><path d="M 85.65308529081776 -138.2169925007338 A 1 1 0 0 1 86.42332120073381 -137.03093320918225" /></g>
<g stroke="rgb(0, 0, 0)"><path d="M86.4233212,-137.0309332L83.0707452,-121.2583031" /></g>
<g stroke="rgb(0, 0, 0)"><path d="M 83.07074520073381 -121.25830310918225 A 1 1 0 0 1 81.88468590918225 -120.4880671992662" /></g>
<g stroke="rgb(0, 0, 0)"><path d="M81.8846859,-120.4880672L70.1469147,-122.9830075" /></g>
<g stroke="rgb(0, 0, 0)"><path d="M 70.14691470918224 -122.9830074992662 A 1 1 0 0 1 69.37667879926619 -124.16906679081775" /></g>
<g stroke="rgb(0, 0, 0)"><path d="M69.3766788,-124.1690668L72.7292548,-139.9416969" /></g>
<g stroke="rgb(0, 0, 0)"><path d="M 72.7292547992662 -139.94169689081775 A 1 1 0 0 1 73.91531409081776 -140.7119328007338" /></g>
<g stroke="rgb(0, 0, 0)"><path d="M89.9149841,-134.377051L101.7672442,-132.4998374" /></g>
<g stroke="rgb(0, 0, 0)"><path d="M 101.76724416504024 -132.49983744059512 A 1 1 0 0 1 102.59849804059515 -131.35571463495975" /></g>
<g stroke="rgb(0, 0, 0)"><path d="M102.5984981,-131.3557146L100.0759923,-115.4292401" /></g>
<g stroke="rgb(0, 0, 0)"><path d="M 100.07599234059514 -115.42924013495977 A 1 1 0 0 1 98.93186953495976 -114.59798625940486" /></g>
<g stroke="rgb(0, 0, 0)"><path d="M98.9318695,-114.5979862L87.0796094,-116.4751998" /></g>
<g stroke="rgb(0, 0, 0)"><path d="M 87.07960943495976 -116.47519975940486 A 1 1 0 0 1 86.24835555940486 -117.61932256504024" /></g>
<g stroke="rgb(0, 0, 0)"><path d="M86.2483555,-117.6193226L88.7708613,-133.5457971" /></g>
<g stroke="rgb(0, 0, 0)"><path d="M 88.77086125940485 -133.54579706504023 A 1 1 0 0 1 89.91498406504023 -134.37705094059513" /></g>
<g stroke="rgb(0, 0, 0)"><path d="M106.0716416,-128.3430424L118.055196,-128.9710739" /></g>
<g stroke="rgb(0, 0, 0)"><path d="M 118.05519604375706 -128.97107393475457 A 1 1 0 0 1 119.10616153475458 -128.02478035624296" /></g>
<g stroke="rgb(0, 0, 0)"><path d="M119.1061615,-128.0247803L119.9500788,-111.9218791" /></g>
<g stroke="rgb(0, 0, 0)"><path d="M 119.95007883475456 -111.92187905624294 A 1 1 0 0 1 119.00378525624294 -110.87091356524543" /></g>
<g stroke="rgb(0, 0, 0)"><path d="M119.0037852,-110.8709136L107.0202308,-110.2428821" /></g>
<g stroke="rgb(0, 0, 0)"><path d="M 107.02023075624294 -110.24288206524542 A 1 1 0 0 1 105.96926526524543 -111.18917564375705" /></g>
<g stroke="rgb(0, 0, 0)"><path d="M105.9692653,-111.1891757L105.125348,-127.2920769" /></g>
<g stroke="rgb(0, 0, 0)"><path d="M 105.12534796524542 -127.29207694375705 A 1 1 0 0 1 106.07164154375705 -128.34304243475458" /></g>
<g stroke="rgb(0, 0, 0)"><path d="M74.75,-100.25L89.25,-100.25" /></g>
<g stroke="rgb(0, 0, 0)"><path d="M91,-98.5L91,-68.6" /></g>
<g stroke="rgb(0, 0, 0)"><path d="M89.25,-66.85L74.75,-66.85" /></g>
<g stroke="rgb(0, 0, 0)"><path d="M73,-68.6L73,-98.5" /></g>
<g stroke="rgb(0, 0, 0)"><path d="M 89.25 -100.25 A 1.75 1.75 0 0 1 91 -98.5" /></g>
<g stroke="rgb(0, 0, 0)"><path d="M 91 -68.6 A 1.75 1.75 0 0 1 89.25 -66.85" /></g>
<g stroke="rgb(0, 0, 0)"><path d="M 74.75 -66.85 A 1.75 1.75 0 0 1 73 -68.6" /></g>
<g stroke="rgb(0, 0, 0)"><path d="M 73 -98.5 A 1.75 1.75 0 0 1 74.75 -100.25" /></g>
  </g>
</svg>