0
SECTION
2
HEADER
9
$INSUNITS
70
4
0
ENDSEC
0
SECTION
2
TABLES
0
TABLE
2
LTYPE
0
LTYPE
72
65
70
64
2
CONTINUOUS
3
______
73
0
40
0
0
ENDTAB
0
TABLE
2
LAYER
0
ENDTAB
0
ENDSEC
0
SECTION
2
ENTITIES
0
LINE
8
0
10
52.5
20
-38.5
11
57.5
21
-38.5
0
LINE
8
0
10
57.5
20
-38.5
11
57.5
21
-33.5
0
LINE
8
0
10
57.5
20
-33.5
11
52.5
21
-33.5
0
LINE
8
0
10
52.5
20
-33.5
11
52.5
21
-38.5
0
LINE
8
0
10
52.5
20
-157.5
11
57.5
21
-157.5
0
LINE
8
0
10
57.5
20
-157.5
11
57.5
21
-152.5
0
LINE
8
0
10
57.5
20
-152.5
11
52.5
21
-152.5
0
LINE
8
0
10
52.5
20
-152.5
11
52.5
21
-157.5
0
CIRCLE
8
0
10
100
20
-100
40
0.25
0
CIRCLE
8
0
10
100
20
-83
40
0.25
0
CIRCLE
8
0
10
100
20
-66
40
0.25
0
CIRCLE
8
0
10
117
20
-100
40
0.25
0
CIRCLE
8
0
10
117
20
-83
40
0.25
0
CIRCLE
8
0
10
117
20
-66
40
0.25
0
CIRCLE
8
0
10
134
20
-100
40
0.25
0
CIRCLE
8
0
10
134
20
-83
40
0.25
0
CIRCLE
8
0
10
134
20
-66
40
0.25
0
CIRCLE
8
0
10
151
20
-100
40
0.25
0
CIRCLE
8
0
10
151
20
-83
40
0.25
0
CIRCLE
8
0
10
151
20
-66
40
0.25
0
CIRCLE
8
0
10
168
20
-100
40
0.25
0
CIRCLE
8
0
10
168
20
-83
40
0.25
0
CIRCLE
8
0
10
168
20
-66
40
0.25
0
CIRCLE
8
0
10
185
20
-91.5
40
0.25
0
CIRCLE
8
0
10
185
20
-70.25
40
0.25
0
CIRCLE
8
0
10
77.9
20
-130.6
40
0.25
0
CIRCLE
8
0
10
94.4234268
20
-124.4875186
40
0.25
0
CIRCLE
8
0
10
112.5377134
20
-119.606978
40
0.25
0
LINE
8
0
10
93.25
20
-108.25
11
106.75
21
-108.25
0
ARC
8
0
10
106.75
20
-106.75
40
1.5
50
270
51
360
0
LINE
8
0
10
108.25
20
-106.75
11
108.25
21
-93.25
0
ARC
8
0
10
106.75
20
-93.25
40
1.5
50
0
51
90
0
LINE
8
0
10
106.75
20
-91.75
11
93.25
21
-91.75
0
ARC
8
0
10
93.25
20
-93.25
40
1.5
50
90
51
180
0
LINE
8
0
10
91.75
20
-93.25
11
91.75
21
-106.75
0
ARC
8
0
10
93.25
20
-106.75
40
1.5
50
180
51
270
0
LINE
8
0
10
93.25
20
-91.25
11
106.75
21
-91.25
0
ARC
8
0
10
106.75
20
-89.75
40
1.5
50
270
51
360
0
LINE
8
0
10
108.25
20
-89.75
11
108.25
21
-76.25
0
ARC
8
0
10
106.75
20
-76.25
40
1.5
50
0
51
90
0
LINE
8
0
10
106.75
20
-74.75
11
93.25
21
-74.75
0
ARC
8
0
10
93.25
20
-76.25
40
1.5
50
90
51
180
0
LINE
8
0
10
91.75
20
-76.25
11
91.75
21
-89.75
0
ARC
8
0
10
93.25
20
-89.75
40
1.5
50
180
51
270
0
LINE
8
0
10
93.25
20
-74.25
11
106.75
21
-74.25
0
ARC
8
0
10
106.75
20
-72.75
40
1.5
50
270
51
360
0
LINE
8
0
10
108.25
20
-72.75
11
108.25
21
-59.25
0
ARC
8
0
10
106.75
20
-59.25
40
1.5
50
0
51
90
0
LINE
8
0
10
106.75
20
-57.75
11
93.25
21
-57.75
0
ARC
8
0
10
93.25
20
-59.25
40
1.5
50
90
51
180
0
LINE
8
0
10
91.75
20
-59.25
11
91.75
21
-72.75
0
ARC
8
0
10
93.25
20
-72.75
40
1.5
50
180
51
270
0
LINE
8
0
10
110.25
20
-108.25
11
123.75
21
-108.25
0
ARC
8
0
10
123.75
20
-106.75
40
1.5
50
270
51
360
0
LINE
8
0
10
125.25
20
-106.75
11
125.25
21
-93.25
0
ARC
8
0
10
123.75
20
-93.25
40
1.5
50
0
51
90
0
LINE
8
0
10
123.75
20
-91.75
11
110.25
21
-91.75
0
ARC
8
0
10
110.25
20
-93.25
40
1.5
50
90
51
180
0
LINE
8
0
10
108.75
20
-93.25
11
108.75
21
-106.75
0
ARC
8
0
10
110.25
20
-106.75
40
1.5
50
180
51
270
0
LINE
8
0
10
110.25
20
-91.25
11
123.75
21
-91.25
0
ARC
8
0
10
123.75
20
-89.75
40
1.5
50
270
51
360
0
LINE
8
0
10
125.25
20
-89.75
11
125.25
21
-76.25
0
ARC
8
0
10
123.75
20
-76.25
40
1.5
50
0
51
90
0
LINE
8
0
10
123.75
20
-74.75
11
110.25
21
-74.75
0
ARC
8
0
10
110.25
20
-76.25
40
1.5
50
90
51
180
0
LINE
8
0
10
108.75
20
-76.25
11
108.75
21
-89.75
0
ARC
8
0
10
110.25
20
-89.75
40
1.5
50
180
51
270
0
LINE
8
0
10
110.25
20
-74.25
11
123.75
21
-74.25
0
ARC
8
0
10
123.75
20
-72.75
40
1.5
50
270
51
360
0
LINE
8
0
10
125.25
20
-72.75
11
125.25
21
-59.25
0
ARC
8
0
10
123.75
20
-59.25
40
1.5
50
0
51
90
0
LINE
8
0
10
123.75
20
-57.75
11
110.25
21
-57.75
0
ARC
8
0
10
110.25
20
-59.25
40
1.5
50
90
51
180
0
LINE
8
0
10
108.75
20
-59.25
11
108.75
21
-72.75
0
ARC
8
0
10
110.25
20
-72.75
40
1.5
50
180
51
270
0
LINE
8
0
10
127.25
20
-108.25
11
140.75
21
-108.25
0
ARC
8
0
10
140.75
20
-106.75
40
1.5
50
270
51
360
0
LINE
8
0
10
142.25
20
-106.75
11
142.25
21
-93.25
0
ARC
8
0
10
140.75
20
-93.25
40
1.5
50
0
51
90
0
LINE
8
0
10
140.75
20
-91.75
11
127.25
21
-91.75
0
ARC
8
0
10
127.25
20
-93.25
40
1.5
50
90
51
180
0
LINE
8
0
10
125.75
20
-93.25
11
125.75
21
-106.75
0
ARC
8
0
10
127.25
20
-106.75
40
1.5
50
180
51
270
0
LINE
8
0
10
127.25
20
-91.25
11
140.75
21
-91.25
0
ARC
8
0
10
140.75
20
-89.75
40
1.5
50
270
51
360
0
LINE
8
0
10
142.25
20
-89.75
11
142.25
21
-76.25
0
ARC
8
0
10
140.75
20
-76.25
40
1.5
50
0
51
90
0
LINE
8
0
10
140.75
20
-74.75
11
127.25
21
-74.75
0
ARC
8
0
10
127.25
20
-76.25
40
1.5
50
90
51
180
0
LINE
8
0
10
125.75
20
-76.25
11
125.75
21
-89.75
0
ARC
8
0
10
127.25
20
-89.75
40
1.5
50
180
51
270
0
LINE
8
0
10
127.25
20
-74.25
11
140.75
21
-74.25
0
ARC
8
0
10
140.75
20
-72.75
40
1.5
50
270
51
360
0
LINE
8
0
10
142.25
20
-72.75
11
142.25
21
-59.25
0
ARC
8
0
10
140.75
20
-59.25
40
1.5
50
0
51
90
0
LINE
8
0
10
140.75
20
-57.75
11
127.25
21
-57.75
0
ARC
8
0
10
127.25
20
-59.25
40
1.5
50
90
51
180
0
LINE
8
0
10
125.75
20
-59.25
11
125.75
21
-72.75
0
ARC
8
0
10
127.25
20
-72.75
40
1.5
50
180
51
270
0
LINE
8
0
10
144.25
20
-108.25
11
157.75
21
-108.25
0
ARC
8
0
10
157.75
20
-106.75
40
1.5
50
270
51
360
0
LINE
8
0
10
159.25
20
-106.75
11
159.25
21
-93.25
0
ARC
8
0
10
157.75
20
-93.25
40
1.5
50
0
51
90
0
LINE
8
0
10
157.75
20
-91.75
11
144.25
21
-91.75
0
ARC
8
0
10
144.25
20
-93.25
40
1.5
50
90
51
180
0
LINE
8
0
10
142.75
20
-93.25
11
142.75
21
-106.75
0
ARC
8
0
10
144.25
20
-106.75
40
1.5
50
180
51
270
0
LINE
8
0
10
144.25
20
-91.25
11
157.75
21
-91.25
0
ARC
8
0
10
157.75
20
-89.75
40
1.5
50
270
51
360
0
LINE
8
0
10
159.25
20
-89.75
11
159.25
21
-76.25
0
ARC
8
0
10
157.75
20
-76.25
40
1.5
50
0
51
90
0
LINE
8
0
10
157.75
20
-74.75
11
144.25
21
-74.75
0
ARC
8
0
10
144.25
20
-76.25
40
1.5
50
90
51
180
0
LINE
8
0
10
142.75
20
-76.25
11
142.75
21
-89.75
0
ARC
8
0
10
144.25
20
-89.75
40
1.5
50
180
51
270
0
LINE
8
0
10
144.25
20
-74.25
11
157.75
21
-74.25
0
ARC
8
0
10
157.75
20
-72.75
40
1.5
50
270
51
360
0
LINE
8
0
10
159.25
20
-72.75
11
159.25
21
-59.25
0
ARC
8
0
10
157.75
20
-59.25
40
1.5
50
0
51
90
0
LINE
8
0
10
157.75
20
-57.75
11
144.25
21
-57.75
0
ARC
8
0
10
144.25
20
-59.25
40
1.5
50
90
51
180
0
LINE
8
0
10
142.75
20
-59.25
11
142.75
21
-72.75
0
ARC
8
0
10
144.25
20
-72.75
40
1.5
50
180
51
270
0
LINE
8
0
10
161.25
20
-108.25
11
174.75
21
-108.25
0
ARC
8
0
10
174.75
20
-106.75
40
1.5
50
270
51
360
0
LINE
8
0
10
176.25
20
-106.75
11
176.25
21
-93.25
0
ARC
8
0
10
174.75
20
-93.25
40
1.5
50
0
51
90
0
LINE
8
0
10
174.75
20
-91.75
11
161.25
21
-91.75
0
ARC
8
0
10
161.25
20
-93.25
40
1.5
50
90
51
180
0
LINE
8
0
10
159.75
20
-93.25
11
159.75
21
-106.75
0
ARC
8
0
10
161.25
20
-106.75
40
1.5
50
180
51
270
0
LINE
8
0
10
161.25
20
-91.25
11
174.75
21
-91.25
0
ARC
8
0
10
174.75
20
-89.75
40
1.5
50
270
51
360
0
LINE
8
0
10
176.25
20
-89.75
11
176.25
21
-76.25
0
ARC
8
0
10
174.75
20
-76.25
40
1.5
50
0
51
90
0
LINE
8
0
10
174.75
20
-74.75
11
161.25
21
-74.75
0
ARC
8
0
10
161.25
20
-76.25
40
1.5
50
90
51
180
0
LINE
8
0
10
159.75
20
-76.25
11
159.75
21
-89.75
0
ARC
8
0
10
161.25
20
-89.75
40
1.5
50
180
51
270
0
LINE
8
0
10
161.25
20
-74.25
11
174.75
21
-74.25
0
ARC
8
0
10
174.75
20
-72.75
40
1.5
50
270
51
360
0
LINE
8
0
10
176.25
20
-72.75
11
176.25
21
-59.25
0
ARC
8
0
10
174.75
20
-59.25
40
1.5
50
0
51
90
0
LINE
8
0
10
174.75
20
-57.75
11
161.25
21
-57.75
0
ARC
8
0
10
161.25
20
-59.25
40
1.5
50
90
51
180
0
LINE
8
0
10
159.75
20
-59.25
11
159.75
21
-72.75
0
ARC
8
0
10
161.25
20
-72.75
40
1.5
50
180
51
270
0
LINE
8
0
10
94
20
-107
11
106
21
-107
0
ARC
8
0
10
106
20
-106
40
1
50
270
51
360
0
LINE
8
0
10
107
20
-106
11
107
21
-94
0
ARC
8
0
10
106
20
-94
40
1
50
0
51
90
0
LINE
8
0
10
106
20
-93
11
94
21
-93
0
ARC
8
0
10
94
20
-94
40
1
50
90
51
180
0
LINE
8
0
10
93
20
-94
11
93
21
-106
0
ARC
8
0
10
94
20
-106
40
1
50
180
51
270
0
LINE
8
0
10
94
20
-90
11
106
21
-90
0
ARC
8
0
10
106
20
-89
40
1
50
270
51
360
0
LINE
8
0
10
107
20
-89
11
107
21
-77
0
ARC
8
0
10
106
20
-77
40
1
50
0
51
90
0
LINE
8
0
10
106
20
-76
11
94
21
-76
0
ARC
8
0
10
94
20
-77
40
1
50
90
51
180
0
LINE
8
0
10
93
20
-77
11
93
21
-89
0
ARC
8
0
10
94
20
-89
40
1
50
180
51
270
0
LINE
8
0
10
94
20
-73
11
106
21
-73
0
ARC
8
0
10
106
20
-72
40
1
50
270
51
360
0
LINE
8
0
10
107
20
-72
11
107
21
-60
0
ARC
8
0
10
106
20
-60
40
1
50
0
51
90
0
LINE
8
0
10
106
20
-59
11
94
21
-59
0
ARC
8
0
10
94
20
-60
40
1
50
90
51
180
0
LINE
8
0
10
93
20
-60
11
93
21
-72
0
ARC
8
0
10
94
20
-72
40
1
50
180
51
270
0
LINE
8
0
10
111
20
-107
11
123
21
-107
0
ARC
8
0
10
123
20
-106
40
1
50
270
51
360
0
LINE
8
0
10
124
20
-106
11
124
21
-94
0
ARC
8
0
10
123
20
-94
40
1
50
0
51
90
0
LINE
8
0
10
123
20
-93
11
111
21
-93
0
ARC
8
0
10
111
20
-94
40
1
50
90
51
180
0
LINE
8
0
10
110
20
-94
11
110
21
-106
0
ARC
8
0
10
111
20
-106
40
1
50
180
51
270
0
LINE
8
0
10
111
20
-90
11
123
21
-90
0
ARC
8
0
10
123
20
-89
40
1
50
270
51
360
0
LINE
8
0
10
124
20
-89
11
124
21
-77
0
ARC
8
0
10
123
20
-77
40
1
50
0
51
90
0
LINE
8
0
10
123
20
-76
11
111
21
-76
0
ARC
8
0
10
111
20
-77
40
1
50
90
51
180
0
LINE
8
0
10
110
20
-77
11
110
21
-89
0
ARC
8
0
10
111
20
-89
40
1
50
180
51
270
0
LINE
8
0
10
111
20
-73
11
123
21
-73
0
ARC
8
0
10
123
20
-72
40
1
50
270
51
360
0
LINE
8
0
10
124
20
-72
11
124
21
-60
0
ARC
8
0
10
123
20
-60
40
1
50
0
51
90
0
LINE
8
0
10
123
20
-59
11
111
21
-59
0
ARC
8
0
10
111
20
-60
40
1
50
90
51
180
0
LINE
8
0
10
110
20
-60
11
110
21
-72
0
ARC
8
0
10
111
20
-72
40
1
50
180
51
270
0
LINE
8
0
10
128
20
-107
11
140
21
-107
0
ARC
8
0
10
140
20
-106
40
1
50
270
51
360
0
LINE
8
0
10
141
20
-106
11
141
21
-94
0
ARC
8
0
10
140
20
-94
40
1
50
0
51
90
0
LINE
8
0
10
140
20
-93
11
128
21
-93
0
ARC
8
0
10
128
20
-94
40
1
50
90
51
180
0
LINE
8
0
10
127
20
-94
11
127
21
-106
0
ARC
8
0
10
128
20
-106
40
1
50
180
51
270
0
LINE
8
0
10
128
20
-90
11
140
21
-90
0
ARC
8
0
10
140
20
-89
40
1
50
270
51
360
0
LINE
8
0
10
141
20
-89
11
141
21
-77
0
ARC
8
0
10
140
20
-77
40
1
50
0
51
90
0
LINE
8
0
10
140
20
-76
11
128
21
-76
0
ARC
8
0
10
128
20
-77
40
1
50
90
51
180
0
LINE
8
0
10
127
20
-77
11
127
21
-89
0
ARC
8
0
10
128
20
-89
40
1
50
180
51
270
0
LINE
8
0
10
128
20
-73
11
140
21
-73
0
ARC
8
0
10
140
20
-72
40
1
50
270
51
360
0
LINE
8
0
10
141
20
-72
11
141
21
-60
0
ARC
8
0
10
140
20
-60
40
1
50
0
51
90
0
LINE
8
0
10
140
20
-59
11
128
21
-59
0
ARC
8
0
10
128
20
-60
40
1
50
90
51
180
0
LINE
8
0
10
127
20
-60
11
127
21
-72
0
ARC
8
0
10
128
20
-72
40
1
50
180
51
270
0
LINE
8
0
10
145
20
-107
11
157
21
-107
0
ARC
8
0
10
157
20
-106
40
1
50
270
51
360
0
LINE
8
0
10
158
20
-106
11
158
21
-94
0
ARC
8
0
10
157
20
-94
40
1
50
0
51
90
0
LINE
8
0
10
157
20
-93
11
145
21
-93
0
ARC
8
0
10
145
20
-94
40
1
50
90
51
180
0
LINE
8
0
10
144
20
-94
11
144
21
-106
0
ARC
8
0
10
145
20
-106
40
1
50
180
51
270
0
LINE
8
0
10
145
20
-90
11
157
21
-90
0
ARC
8
0
10
157
20
-89
40
1
50
270
51
360
0
LINE
8
0
10
158
20
-89
11
158
21
-77
0
ARC
8
0
10
157
20
-77
40
1
50
0
51
90
0
LINE
8
0
10
157
20
-76
11
145
21
-76
0
ARC
8
0
10
145
20
-77
40
1
50
90
51
180
0
LINE
8
0
10
144
20
-77
11
144
21
-89
0
ARC
8
0
10
145
20
-89
40
1
50
180
51
270
0
LINE
8
0
10
145
20
-73
11
157
21
-73
0
ARC
8
0
10
157
20
-72
40
1
50
270
51
360
0
LINE
8
0
10
158
20
-72
11
158
21
-60
0
ARC
8
0
10
157
20
-60
40
1
50
0
51
90
0
LINE
8
0
10
157
20
-59
11
145
21
-59
0
ARC
8
0
10
145
20
-60
40
1
50
90
51
180
0
LINE
8
0
10
144
20
-60
11
144
21
-72
0
ARC
8
0
10
145
20
-72
40
1
50
180
51
270
0
LINE
8
0
10
162
20
-107
11
174
21
-107
0
ARC
8
0
10
174
20
-106
40
1
50
270
51
360
0
LINE
8
0
10
175
20
-106
11
175
21
-94
0
ARC
8
0
10
174
20
-94
40
1
50
0
51
90
0
LINE
8
0
10
174
20
-93
11
162
21
-93
0
ARC
8
0
10
162
20
-94
40
1
50
90
51
180
0
LINE
8
0
10
161
20
-94
11
161
21
-106
0
ARC
8
0
10
162
20
-106
40
1
50
180
51
270
0
LINE
8
0
10
162
20
-90
11
174
21
-90
0
ARC
8
0
10
174
20
-89
40
1
50
270
51
360
0
LINE
8
0
10
175
20
-89
11
175
21
-77
0
ARC
8
0
10
174
20
-77
40
1
50
0
51
90
0
LINE
8
0
10
174
20
-76
11
162
21
-76
0
ARC
8
0
10
162
20
-77
40
1
50
90
51
180
0
LINE
8
0
10
161
20
-77
11
161
21
-89
0
ARC
8
0
10
162
20
-89
40
1
50
180
51
270
0
LINE
8
0
10
162
20
-73
11
174
21
-73
0
ARC
8
0
10
174
20
-72
40
1
50
270
51
360
0
LINE
8
0
10
175
20
-72
11
175
21
-60
0
ARC
8
0
10
174
20
-60
40
1
50
0
51
90
0
LINE
8
0
10
174
20
-59
11
162
21
-59
0
ARC
8
0
10
162
20
-60
40
1
50
90
51
180
0
LINE
8
0
10
161
20
-60
11
161
21
-72
0
ARC
8
0
10
162
20
-72
40
1
50
180
51
270
0
LINE
8
0
10
178.25
20
-101.8125
11
191.75
21
-101.8125
0
ARC
8
0
10
191.75
20
-100.3125
40
1.5
50
270
51
360
0
LINE
8
0
10
193.25
20
-100.3125
11
193.25
21
-82.6875
0
ARC
8
0
10
191.75
20
-82.6875
40
1.5
50
0
51
90
0
LINE
8
0
10
191.75
20
-81.1875
11
178.25
21
-81.1875
0
ARC
8
0
10
178.25
20
-82.6875
40
1.5
50
90
51
180
0
LINE
8
0
10
176.75
20
-82.6875
11
176.75
21
-100.3125
0
ARC
8
0
10
178.25
20
-100.3125
40
1.5
50
180
51
270
0
LINE
8
0
10
178.25
20
-80.5625
11
191.75
21
-80.5625
0
ARC
8
0
10
191.75
20
-79.0625
40
1.5
50
270
51
360
0
LINE
8
0
10
193.25
20
-79.0625
11
193.25
21
-61.4375
0
ARC
8
0
10
191.75
20
-61.4375
40
1.5
50
0
51
90
0
LINE
8
0
10
191.75
20
-59.9375
11
178.25
21
-59.9375
0
ARC
8
0
10
178.25
20
-61.4375
40
1.5
50
90
51
180
0
LINE
8
0
10
176.75
20
-61.4375
11
176.75
21
-79.0625
0
ARC
8
0
10
178.25
20
-79.0625
40
1.5
50
180
51
270
0
LINE
8
0
10
73.441593
20
-142.090551
11
86.6465856
21
-139.2837432
0
ARC
8
0
10
86.3347181
20
-137.8165218
40
1.5
50
282
51
12
0
LINE
8
0
10
87.8019395
20
-137.5046543
11
84.1374959
21
-120.2648028
0
ARC
8
0
10
82.6702745
20
-120.5766704
40
1.5
50
12
51
102
0
LINE
8
0
10
82.358407
20
-119.109449
11
69.1534144
21
-121.9162568
0
ARC
8
0
10
69.4652819
20
-123.3834782
40
1.5
50
102
51
192
0
LINE
8
0
10
67.9980605
20
-123.6953457
11
71.6625041
21
-140.9351972
0
ARC
8
0
10
73.1297255
20
-140.6233296
40
1.5
50
192
51
282
0
LINE
8
0
10
89.3697609
20
-135.7289873
11
102.7035535
21
-133.617122
0
ARC
8
0
10
102.4689018
20
-132.1355895
40
1.5
50
279
51
9
0
LINE
8
0
10
103.9504343
20
-131.9009378
11
101.1932769
21
-114.4929308
0
ARC
8
0
10
99.7117444
20
-114.7275825
40
1.5
50
9
51
99
0
LINE
8
0
10
99.4770927
20
-113.2460499
11
86.1433001
21
-115.3579152
0
ARC
8
0
10
86.3779518
20
-116.8394477
40
1.5
50
99
51
189
0
LINE
8
0
10
84.8964193
20
-117.0740994
11
87.6535767
21
-134.4821064
0
ARC
8
0
10
89.1351092
20
-134.2474547
40
1.5
50
189
51
279
0
LINE
8
0
10
105.2572495
20
-129.5520774
11
118.7387482
21
-130.2586128
0
ARC
8
0
10
118.8172521
20
-128.7606685
40
1.5
50
267
51
357
0
LINE
8
0
10
120.3151964
20
-128.8391724
11
121.2376177
21
-111.2383269
0
ARC
8
0
10
119.7396734
20
-111.1598229
40
1.5
50
357
51
87
0
LINE
8
0
10
119.8181773
20
-109.6618786
11
106.3366786
21
-108.9553432
0
ARC
8
0
10
106.2581747
20
-110.4532875
40
1.5
50
87
51
177
0
LINE
8
0
10
104.7602304
20
-110.3747836
11
103.8378091
21
-127.9756291
0
ARC
8
0
10
105.3357534
20
-128.0541331
40
1.5
50
177
51
267
0
LINE
8
0
10
179
20
-100.5625
11
191
21
-100.5625
0
ARC
8
0
10
191
20
-99.5625
40
1
50
270
51
360
0
LINE
8
0
10
192
20
-99.5625
11
192
21
-83.4375
0
ARC
8
0
10
191
20
-83.4375
40
1
50
0
51
90
0
LINE
8
0
10
191
20
-82.4375
11
179
21
-82.4375
0
ARC
8
0
10
179
20
-83.4375
40
1
50
90
51
180
0
LINE
8
0
10
178
20
-83.4375
11
178
21
-99.5625
0
ARC
8
0
10
179
20
-99.5625
40
1
50
180
51
270
0
LINE
8
0
10
179
20
-79.3125
11
191
21
-79.3125
0
ARC
8
0
10
191
20
-78.3125
40
1
50
270
51
360
0
LINE
8
0
10
192
20
-78.3125
11
192
21
-62.1875
0
ARC
8
0
10
191
20
-62.1875
40
1
50
0
51
90
0
LINE
8
0
10
191
20
-61.1875
11
179
21
-61.1875
0
ARC
8
0
10
179
20
-62.1875
40
1
50
90
51
180
0
LINE
8
0
10
178
20
-62.1875
11
178
21
-78.3125
0
ARC
8
0
10
179
20
-78.3125
40
1
50
180
51
270
0
LINE
8
0
10
73.9153141
20
-140.7119328
11
85.6530853
21
-138.2169925
0
ARC
8
0
10
85.4451736
20
-137.2388449
40
1
50
282
51
12
0
LINE
8
0
10
86.4233212
20
-137.0309332
11
83.0707452
21
-121.2583031
0
ARC
8
0
10
82.0925976
20
-121.4662148
40
1
50
12
51
102
0
LINE
8
0
10
81.8846859
20
-120.4880672
11
70.1469147
21
-122.9830075
0
ARC
8
0
10
70.3548264
20
-123.9611551
40
1
50
102
51
192
0
LINE
8
0
10
69.3766788
20
-124.1690668
11
72.7292548
21
-139.9416969
0
ARC
8
0
10
73.7074024
20
-139.7337852
40
1
50
192
51
282
0
LINE
8
0
10
89.9149841
20
-134.377051
11
101.7672442
21
-132.4998374
0
ARC
8
0
10
101.6108097
20
-131.5121491
40
1
50
279
51
9
0
LINE
8
0
10
102.5984981
20
-131.3557146
11
100.0759923
21
-115.4292401
0
ARC
8
0
10
99.088304
20
-115.5856746
40
1
50
9
51
99
0
LINE
8
0
10
98.9318695
20
-114.5979862
11
87.0796094
21
-116.4751998
0
ARC
8
0
10
87.2360439
20
-117.4628881
40
1
50
99
51
189
0
LINE
8
0
10
86.2483555
20
-117.6193226
11
88.7708613
21
-133.5457971
0
ARC
8
0
10
89.7585496
20
-133.3893626
40
1
50
189
51
279
0
LINE
8
0
10
106.0716416
20
-128.3430424
11
118.055196
21
-128.9710739
0
ARC
8
0
10
118.107532
20
-127.9724444
40
1
50
267
51
357
0
LINE
8
0
10
119.1061615
20
-128.0247803
11
119.9500788
21
-111.9218791
0
ARC
8
0
10
118.9514493
20
-111.8695431
40
1
50
357
51
87
0
LINE
8
0
10
119.0037852
20
-110.8709136
11
107.0202308
21
-110.2428821
0
ARC
8
0
10
106.9678948
20
-111.2415116
40
1
50
87
51
177
0
LINE
8
0
10
105.9692653
20
-111.1891757
11
105.125348
21
-127.2920769
0
ARC
8
0
10
106.1239775
20
-127.3444129
40
1
50
177
51
267
0
LINE
8
0
10
74.75
20
-100.25
11
89.25
21
-100.25
0
LINE
8
0
10
91
20
-98.5
11
91
21
-68.6
0
LINE
8
0
10
89.25
20
-66.85
11
74.75
21
-66.85
0
LINE
8
0
10
73
20
-68.6
11
73
21
-98.5
0
ARC
8
0
10
89.25
20
-98.5
40
1.75
50
270
51
0
0
ARC
8
0
10
89.25
20
-68.6
40
1.75
50
0
51
90
0
ARC
8
0
10
74.75
20
-68.6
40
1.75
50
90
51
180
0
ARC
8
0
10
74.75
20
-98.5
40
1.75
50
180
51
270
0
ENDSEC
0
EOF